<svg xmlns="http://www.w3.org/2000/svg" width="1280" height="980">
<rect width="100%" height="100%" fill="#fbfdff"/>
<text x="20" y="28" font-size="20" font-family="Arial">Solver comparison: old RK4(C) vs new LSODA(C++) - SIBR</text>
<rect x="20" y="50" width="1240" height="280" fill="white" stroke="#d0d7de"/>
<text x="28" y="68" font-size="14" font-family="Arial">Trajectory (tms=0)</text>
<line x1="76" y1="298" x2="1242" y2="298" stroke="#555"/>
<line x1="76" y1="78" x2="76" y2="298" stroke="#555"/>
<line x1="76" y1="78.00" x2="1242" y2="78.00" stroke="#f0f0f0"/>
<text x="24" y="82.00" font-size="10" font-family="Arial">16.67</text>
<line x1="76" y1="133.00" x2="1242" y2="133.00" stroke="#f0f0f0"/>
<text x="24" y="137.00" font-size="10" font-family="Arial">15.08</text>
<line x1="76" y1="188.00" x2="1242" y2="188.00" stroke="#f0f0f0"/>
<text x="24" y="192.00" font-size="10" font-family="Arial">13.50</text>
<line x1="76" y1="243.00" x2="1242" y2="243.00" stroke="#f0f0f0"/>
<text x="24" y="247.00" font-size="10" font-family="Arial">11.91</text>
<line x1="76" y1="298.00" x2="1242" y2="298.00" stroke="#f0f0f0"/>
<text x="24" y="302.00" font-size="10" font-family="Arial">10.33</text>
<line x1="76.00" y1="78" x2="76.00" y2="298" stroke="#f5f5f5"/>
<text x="66.00" y="314" font-size="10" font-family="Arial">0</text>
<line x1="309.20" y1="78" x2="309.20" y2="298" stroke="#f5f5f5"/>
<text x="299.20" y="314" font-size="10" font-family="Arial">144</text>
<line x1="542.40" y1="78" x2="542.40" y2="298" stroke="#f5f5f5"/>
<text x="532.40" y="314" font-size="10" font-family="Arial">288</text>
<line x1="775.60" y1="78" x2="775.60" y2="298" stroke="#f5f5f5"/>
<text x="765.60" y="314" font-size="10" font-family="Arial">432</text>
<line x1="1008.80" y1="78" x2="1008.80" y2="298" stroke="#f5f5f5"/>
<text x="998.80" y="314" font-size="10" font-family="Arial">576</text>
<line x1="1242.00" y1="78" x2="1242.00" y2="298" stroke="#f5f5f5"/>
<text x="1232.00" y="314" font-size="10" font-family="Arial">720</text>
<polyline fill="none" stroke="#1f77b4" stroke-width="1.6" points="76.00,251.11 77.62,219.59 79.24,194.59 80.86,174.89 82.48,159.51 84.10,147.65 85.72,138.68 87.34,132.16 88.96,127.02 90.58,123.34 92.19,120.84 93.81,119.30 95.43,118.52 97.05,118.35 98.67,118.66 100.29,119.35 101.91,120.33 103.53,121.53 105.15,122.90 106.77,124.41 108.39,126.00 110.01,127.65 111.63,129.34 113.25,131.05 114.87,132.77 116.49,134.49 118.11,136.20 119.72,137.88 121.34,139.55 122.96,141.20 124.58,142.82 126.20,144.42 127.82,146.01 129.44,147.57 131.06,149.13 132.68,150.67 134.30,152.22 135.92,153.76 137.54,155.30 139.16,156.86 140.78,158.42 142.40,160.01 144.02,161.60 145.64,163.22 147.26,164.87 148.88,166.53 150.49,168.23 152.11,169.95 153.73,171.70 155.35,173.47 156.97,175.28 158.59,177.11 160.21,178.97 161.83,180.86 163.45,182.77 165.07,184.71 166.69,186.67 168.31,188.66 169.93,190.67 171.55,192.71 173.17,194.77 174.79,196.87 176.41,198.98 178.03,201.10 179.64,203.24 181.26,205.39 182.88,207.56 184.50,209.75 186.12,211.95 187.74,214.15 189.36,216.33 190.98,218.47 192.60,220.51 194.22,222.38 195.84,223.93 197.46,224.99 199.08,225.37 200.70,224.94 202.32,223.62 203.94,221.40 205.56,218.27 207.18,214.27 208.79,209.48 210.41,203.99 212.03,197.91 213.65,191.34 215.27,184.38 216.89,177.17 218.51,169.80 220.13,162.41 221.75,155.09 223.37,147.97 224.99,141.12 226.61,134.62 228.23,128.54 229.85,122.92 231.47,117.80 233.09,113.18 234.71,109.07 236.32,105.48 237.94,102.39 239.56,99.79 241.18,97.66 242.80,95.97 244.42,94.70 246.04,93.83 247.66,93.33 249.28,93.17 250.90,93.34 252.52,93.81 254.14,94.54 255.76,95.54 257.38,96.76 259.00,98.20 260.62,99.82 262.24,101.62 263.86,103.58 265.48,105.68 267.09,107.90 268.71,110.24 270.33,112.68 271.95,115.20 273.57,117.80 275.19,120.46 276.81,123.18 278.43,125.94 280.05,128.73 281.67,131.56 283.29,134.41 284.91,137.27 286.53,140.13 288.15,143.00 289.77,145.87 291.39,148.73 293.01,151.57 294.62,154.40 296.24,157.21 297.86,159.99 299.48,162.74 301.10,165.46 302.72,168.16 304.34,170.81 305.96,173.43 307.58,176.01 309.20,178.55 310.82,181.04 312.44,183.50 314.06,185.91 315.68,188.27 317.30,190.59 318.92,192.86 320.54,195.09 322.16,197.27 323.77,199.40 325.39,201.48 327.01,203.52 328.63,205.51 330.25,207.45 331.87,209.35 333.49,211.20 335.11,213.00 336.73,214.76 338.35,216.47 339.97,218.13 341.59,219.75 343.21,221.33 344.83,222.86 346.45,224.35 348.07,225.80 349.69,227.21 351.31,228.57 352.93,229.90 354.54,231.18 356.16,232.43 357.78,233.63 359.40,234.80 361.02,235.94 362.64,237.03 364.26,238.09 365.88,239.11 367.50,240.10 369.12,241.06 370.74,241.98 372.36,242.87 373.98,243.73 375.60,244.55 377.22,245.35 378.84,246.11 380.46,246.85 382.07,247.55 383.69,248.23 385.31,248.88 386.93,249.50 388.55,250.09 390.17,250.66 391.79,251.20 393.41,251.72 395.03,252.21 396.65,252.67 398.27,253.11 399.89,253.52 401.51,253.92 403.13,254.28 404.75,254.63 406.37,254.95 407.99,255.24 409.61,255.52 411.23,255.77 412.84,256.00 414.46,256.20 416.08,256.39 417.70,256.55 419.32,256.69 420.94,256.81 422.56,256.90 424.18,256.97 425.80,257.02 427.42,257.05 429.04,257.05 430.66,257.03 432.28,256.99 433.90,256.92 435.52,256.83 437.14,256.71 438.76,256.56 440.38,256.39 441.99,256.19 443.61,255.97 445.23,255.71 446.85,255.43 448.47,255.11 450.09,254.76 451.71,254.37 453.33,253.95 454.95,253.49 456.57,252.99 458.19,252.45 459.81,251.86 461.43,251.22 463.05,250.54 464.67,249.80 466.29,249.00 467.91,248.15 469.52,247.23 471.14,246.24 472.76,245.18 474.38,244.04 476.00,242.82 477.62,241.53 479.24,240.15 480.86,238.69 482.48,237.15 484.10,235.53 485.72,233.84 487.34,232.09 488.96,230.28 490.58,228.42 492.20,226.54 493.82,224.65 495.44,222.75 497.06,220.86 498.68,219.01 500.29,217.19 501.91,215.43 503.53,213.73 505.15,212.10 506.77,210.55 508.39,209.09 510.01,207.72 511.63,206.44 513.25,205.26 514.87,204.17 516.49,203.19 518.11,202.30 519.73,201.51 521.35,200.82 522.97,200.21 524.59,199.70 526.21,199.28 527.83,198.94 529.44,198.68 531.06,198.50 532.68,198.39 534.30,198.35 535.92,198.38 537.54,198.48 539.16,198.63 540.78,198.84 542.40,199.10 544.02,199.41 545.64,199.77 547.26,200.17 548.88,200.61 550.50,201.09 552.12,201.60 553.74,202.14 555.36,202.70 556.98,203.30 558.59,203.91 560.21,204.55 561.83,205.20 563.45,205.87 565.07,206.55 566.69,207.24 568.31,207.95 569.93,208.66 571.55,209.38 573.17,210.10 574.79,210.82 576.41,211.55 578.03,212.28 579.65,213.01 581.27,213.73 582.89,214.46 584.51,215.18 586.12,215.89 587.74,216.60 589.36,217.30 590.98,217.99 592.60,218.68 594.22,219.36 595.84,220.03 597.46,220.69 599.08,221.34 600.70,221.98 602.32,222.60 603.94,223.22 605.56,223.83 607.18,224.42 608.80,225.00 610.42,225.57 612.04,226.12 613.66,226.67 615.27,227.20 616.89,227.72 618.51,228.22 620.13,228.71 621.75,229.19 623.37,229.66 624.99,230.11 626.61,230.55 628.23,230.98 629.85,231.39 631.47,231.79 633.09,232.18 634.71,232.56 636.33,232.92 637.95,233.27 639.57,233.61 641.19,233.94 642.81,234.25 644.42,234.56 646.04,234.85 647.66,235.13 649.28,235.39 650.90,235.65 652.52,235.90 654.14,236.13 655.76,236.35 657.38,236.57 659.00,236.77 660.62,236.96 662.24,237.15 663.86,237.32 665.48,237.48 667.10,237.63 668.72,237.78 670.34,237.91 671.96,238.04 673.58,238.16 675.19,238.27 676.81,238.37 678.43,238.46 680.05,238.55 681.67,238.62 683.29,238.69 684.91,238.75 686.53,238.81 688.15,238.86 689.77,238.90 691.39,238.93 693.01,238.96 694.63,238.98 696.25,239.00 697.87,239.00 699.49,239.01 701.11,239.01 702.73,239.00 704.34,238.98 705.96,238.96 707.58,238.94 709.20,238.91 710.82,238.88 712.44,238.84 714.06,238.79 715.68,238.75 717.30,238.70 718.92,238.64 720.54,238.58 722.16,238.51 723.78,238.45 725.40,238.38 727.02,238.30 728.64,238.22 730.26,238.14 731.88,238.06 733.49,237.97 735.11,237.88 736.73,237.78 738.35,237.69 739.97,237.59 741.59,237.48 743.21,237.38 744.83,237.27 746.45,237.16 748.07,237.05 749.69,236.94 751.31,236.82 752.93,236.71 754.55,236.59 756.17,236.46 757.79,236.34 759.41,236.22 761.02,236.09 762.64,235.96 764.26,235.83 765.88,235.70 767.50,235.57 769.12,235.44 770.74,235.31 772.36,235.17 773.98,235.03 775.60,234.90 777.22,234.76 778.84,234.62 780.46,234.48 782.08,234.34 783.70,234.20 785.32,234.06 786.94,233.92 788.56,233.77 790.17,233.63 791.79,233.49 793.41,233.34 795.03,233.20 796.65,233.05 798.27,232.91 799.89,232.76 801.51,232.62 803.13,232.47 804.75,232.33 806.37,232.18 807.99,232.03 809.61,231.89 811.23,231.74 812.85,231.60 814.47,231.45 816.09,231.31 817.71,231.16 819.33,231.02 820.94,230.87 822.56,230.73 824.18,230.58 825.80,230.44 827.42,230.29 829.04,230.15 830.66,230.01 832.28,229.86 833.90,229.72 835.52,229.58 837.14,229.44 838.76,229.30 840.38,229.15 842.00,229.01 843.62,228.87 845.24,228.74 846.86,228.60 848.48,228.46 850.09,228.32 851.71,228.18 853.33,228.05 854.95,227.91 856.57,227.78 858.19,227.64 859.81,227.51 861.43,227.37 863.05,227.24 864.67,227.11 866.29,226.98 867.91,226.85 869.53,226.72 871.15,226.59 872.77,226.46 874.39,226.33 876.01,226.20 877.62,226.08 879.24,225.95 880.86,225.83 882.48,225.70 884.10,225.58 885.72,225.46 887.34,225.33 888.96,225.21 890.58,225.09 892.20,224.97 893.82,224.85 895.44,224.73 897.06,224.62 898.68,224.50 900.30,224.38 901.92,224.27 903.54,224.15 905.16,224.04 906.77,223.93 908.39,223.82 910.01,223.70 911.63,223.59 913.25,223.48 914.87,223.38 916.49,223.27 918.11,223.16 919.73,223.05 921.35,222.95 922.97,222.84 924.59,222.74 926.21,222.64 927.83,222.53 929.45,222.43 931.07,222.33 932.69,222.23 934.31,222.13 935.92,222.03 937.54,221.93 939.16,221.84 940.78,221.74 942.40,221.65 944.02,221.55 945.64,221.46 947.26,221.36 948.88,221.27 950.50,221.18 952.12,221.09 953.74,221.00 955.36,220.91 956.98,220.82 958.60,220.73 960.22,220.64 961.84,220.56 963.46,220.47 965.08,220.39 966.69,220.30 968.31,220.22 969.93,220.14 971.55,220.05 973.17,219.97 974.79,219.89 976.41,219.81 978.03,219.73 979.65,219.65 981.27,219.58 982.89,219.50 984.51,219.42 986.13,219.35 987.75,219.27 989.37,219.20 990.99,219.12 992.61,219.05 994.23,218.98 995.84,218.90 997.46,218.83 999.08,218.76 1000.70,218.69 1002.32,218.62 1003.94,218.55 1005.56,218.49 1007.18,218.42 1008.80,218.35 1010.42,218.28 1012.04,218.22 1013.66,218.15 1015.28,218.09 1016.90,218.03 1018.52,217.96 1020.14,217.90 1021.76,217.84 1023.38,217.78 1024.99,217.72 1026.61,217.66 1028.23,217.60 1029.85,217.54 1031.47,217.48 1033.09,217.42 1034.71,217.36 1036.33,217.31 1037.95,217.25 1039.57,217.19 1041.19,217.14 1042.81,217.08 1044.43,217.03 1046.05,216.98 1047.67,216.92 1049.29,216.87 1050.91,216.82 1052.53,216.77 1054.14,216.71 1055.76,216.66 1057.38,216.61 1059.00,216.56 1060.62,216.51 1062.24,216.47 1063.86,216.42 1065.48,216.37 1067.10,216.32 1068.72,216.28 1070.34,216.23 1071.96,216.18 1073.58,216.14 1075.20,216.09 1076.82,216.05 1078.44,216.00 1080.06,215.96 1081.67,215.92 1083.29,215.87 1084.91,215.83 1086.53,215.79 1088.15,215.75 1089.77,215.71 1091.39,215.67 1093.01,215.63 1094.63,215.59 1096.25,215.55 1097.87,215.51 1099.49,215.47 1101.11,215.43 1102.73,215.39 1104.35,215.36 1105.97,215.32 1107.59,215.28 1109.21,215.25 1110.83,215.21 1112.44,215.17 1114.06,215.14 1115.68,215.10 1117.30,215.07 1118.92,215.04 1120.54,215.00 1122.16,214.97 1123.78,214.94 1125.40,214.90 1127.02,214.87 1128.64,214.84 1130.26,214.81 1131.88,214.77 1133.50,214.74 1135.12,214.71 1136.74,214.68 1138.36,214.65 1139.97,214.62 1141.59,214.59 1143.21,214.56 1144.83,214.53 1146.45,214.51 1148.07,214.48 1149.69,214.45 1151.31,214.42 1152.93,214.39 1154.55,214.37 1156.17,214.34 1157.79,214.31 1159.41,214.29 1161.03,214.26 1162.65,214.24 1164.27,214.21 1165.89,214.19 1167.51,214.16 1169.12,214.14 1170.74,214.11 1172.36,214.09 1173.98,214.06 1175.60,214.04 1177.22,214.02 1178.84,213.99 1180.46,213.97 1182.08,213.95 1183.70,213.92 1185.32,213.90 1186.94,213.88 1188.56,213.86 1190.18,213.84 1191.80,213.82 1193.42,213.80 1195.04,213.77 1196.66,213.75 1198.28,213.73 1199.89,213.71 1201.51,213.69 1203.13,213.67 1204.75,213.65 1206.37,213.63 1207.99,213.62 1209.61,213.60 1211.23,213.58 1212.85,213.56 1214.47,213.54 1216.09,213.52 1217.71,213.51 1219.33,213.49 1220.95,213.47 1222.57,213.45 1224.19,213.44 1225.81,213.42 1227.42,213.40 1229.04,213.39 1230.66,213.37 1232.28,213.35 1233.90,213.34 1235.52,213.32 1237.14,213.31 1238.76,213.29 1240.38,213.27 1242.00,213.26" />
<polyline fill="none" stroke="#d62728" stroke-width="1.6" points="76.00,251.11 77.62,219.59 79.24,194.58 80.86,174.89 82.48,159.51 84.10,147.64 85.72,138.68 87.34,132.17 88.96,127.73 90.58,124.97 92.19,123.55 93.81,123.20 95.43,123.68 97.05,124.83 98.67,126.48 100.29,128.53 101.91,130.88 103.53,133.45 105.15,136.18 106.77,139.02 108.39,141.93 110.01,144.87 111.63,147.84 113.25,150.79 114.87,153.73 116.49,156.63 118.11,159.50 119.72,162.32 121.34,165.09 122.96,167.82 124.58,170.49 126.20,173.12 127.82,175.71 129.44,178.25 131.06,180.75 132.68,183.23 134.30,185.67 135.92,188.09 137.54,190.49 139.16,192.88 140.78,195.26 142.40,197.63 144.02,200.00 145.64,202.37 147.26,204.74 148.88,207.12 150.49,209.50 152.11,211.89 153.73,214.28 155.35,216.69 156.97,219.10 158.59,221.53 160.21,223.96 161.83,226.40 163.45,228.85 165.07,231.31 166.69,233.77 168.31,236.24 169.93,238.72 171.55,241.21 173.17,243.70 174.79,246.21 176.41,248.72 178.03,251.22 179.64,253.72 181.26,256.21 182.88,258.71 184.50,261.21 186.12,263.70 187.74,266.17 189.36,268.59 190.98,270.96 192.60,273.20 194.22,275.22 195.84,276.88 197.46,278.00 199.08,278.40 200.70,277.95 202.32,276.59 203.94,274.31 205.56,271.10 207.18,267.01 208.79,262.11 210.41,256.48 212.03,250.22 213.65,243.44 215.27,236.24 216.89,228.73 218.51,221.04 220.13,213.28 221.75,205.57 223.37,198.02 224.99,190.72 226.61,183.76 228.23,177.21 229.85,171.12 231.47,165.52 233.09,160.45 234.71,155.91 236.32,151.89 237.94,148.40 239.56,145.42 241.18,142.93 242.80,140.90 244.42,139.31 246.04,138.14 247.66,137.36 249.28,136.94 250.90,136.86 252.52,137.09 254.14,137.61 255.76,138.40 257.38,139.43 259.00,140.67 260.62,142.12 262.24,143.76 263.86,145.55 265.48,147.50 267.09,149.57 268.71,151.77 270.33,154.06 271.95,156.45 273.57,158.92 275.19,161.45 276.81,164.04 278.43,166.68 280.05,169.35 281.67,172.06 283.29,174.79 284.91,177.53 286.53,180.28 288.15,183.03 289.77,185.78 291.39,188.52 293.01,191.24 294.62,193.95 296.24,196.64 297.86,199.30 299.48,201.93 301.10,204.54 302.72,207.10 304.34,209.63 305.96,212.12 307.58,214.58 309.20,216.98 310.82,219.35 312.44,221.67 314.06,223.94 315.68,226.17 317.30,228.35 318.92,230.48 320.54,232.56 322.16,234.60 323.77,236.58 325.39,238.52 327.01,240.40 328.63,242.24 330.25,244.02 331.87,245.76 333.49,247.45 335.11,249.09 336.73,250.68 338.35,252.23 339.97,253.72 341.59,255.18 343.21,256.58 344.83,257.94 346.45,259.25 348.07,260.53 349.69,261.75 351.31,262.94 352.93,264.08 354.54,265.18 356.16,266.24 357.78,267.26 359.40,268.24 361.02,269.18 362.64,270.09 364.26,270.96 365.88,271.79 367.50,272.58 369.12,273.34 370.74,274.07 372.36,274.76 373.98,275.42 375.60,276.05 377.22,276.64 378.84,277.21 380.46,277.74 382.07,278.25 383.69,278.72 385.31,279.17 386.93,279.59 388.55,279.98 390.17,280.34 391.79,280.68 393.41,280.99 395.03,281.28 396.65,281.54 398.27,281.77 399.89,281.98 401.51,282.17 403.13,282.33 404.75,282.47 406.37,282.59 407.99,282.68 409.61,282.75 411.23,282.80 412.84,282.82 414.46,282.83 416.08,282.81 417.70,282.77 419.32,282.71 420.94,282.62 422.56,282.52 424.18,282.39 425.80,282.24 427.42,282.06 429.04,281.87 430.66,281.65 432.28,281.41 433.90,281.15 435.52,280.86 437.14,280.54 438.76,280.21 440.38,279.84 441.99,279.46 443.61,279.04 445.23,278.60 446.85,278.12 448.47,277.62 450.09,277.08 451.71,276.52 453.33,275.91 454.95,275.28 456.57,274.60 458.19,273.88 459.81,273.12 461.43,272.32 463.05,271.47 464.67,270.56 466.29,269.60 467.91,268.59 469.52,267.51 471.14,266.37 472.76,265.16 474.38,263.87 476.00,262.52 477.62,261.08 479.24,259.56 480.86,257.96 482.48,256.28 484.10,254.53 485.72,252.70 487.34,250.80 488.96,248.85 490.58,246.85 492.20,244.81 493.82,242.76 495.44,240.70 497.06,238.65 498.68,236.62 500.29,234.63 501.91,232.69 503.53,230.80 505.15,228.99 506.77,227.26 508.39,225.61 510.01,224.05 511.63,222.59 513.25,221.22 514.87,219.95 516.49,218.78 518.11,217.71 519.73,216.74 521.35,215.87 522.97,215.09 524.59,214.40 526.21,213.81 527.83,213.30 529.44,212.88 531.06,212.54 532.68,212.27 534.30,212.08 535.92,211.95 537.54,211.90 539.16,211.91 540.78,211.97 542.40,212.09 544.02,212.26 545.64,212.49 547.26,212.75 548.88,213.06 550.50,213.41 552.12,213.79 553.74,214.21 555.36,214.65 556.98,215.13 558.59,215.63 560.21,216.15 561.83,216.69 563.45,217.25 565.07,217.82 566.69,218.41 568.31,219.01 569.93,219.62 571.55,220.24 573.17,220.86 574.79,221.49 576.41,222.13 578.03,222.76 579.65,223.40 581.27,224.04 582.89,224.67 584.51,225.31 586.12,225.94 587.74,226.56 589.36,227.18 590.98,227.80 592.60,228.40 594.22,229.01 595.84,229.60 597.46,230.18 599.08,230.76 600.70,231.33 602.32,231.88 603.94,232.43 605.56,232.97 607.18,233.49 608.80,234.01 610.42,234.51 612.04,235.01 613.66,235.49 615.27,235.96 616.89,236.41 618.51,236.86 620.13,237.29 621.75,237.71 623.37,238.12 624.99,238.52 626.61,238.91 628.23,239.28 629.85,239.64 631.47,239.99 633.09,240.33 634.71,240.66 636.33,240.97 637.95,241.27 639.57,241.56 641.19,241.84 642.81,242.11 644.42,242.37 646.04,242.62 647.66,242.85 649.28,243.08 650.90,243.29 652.52,243.50 654.14,243.69 655.76,243.88 657.38,244.05 659.00,244.22 660.62,244.38 662.24,244.52 663.86,244.66 665.48,244.79 667.10,244.91 668.72,245.02 670.34,245.13 671.96,245.22 673.58,245.31 675.19,245.39 676.81,245.46 678.43,245.53 680.05,245.58 681.67,245.63 683.29,245.68 684.91,245.72 686.53,245.75 688.15,245.77 689.77,245.79 691.39,245.80 693.01,245.81 694.63,245.81 696.25,245.81 697.87,245.80 699.49,245.78 701.11,245.76 702.73,245.74 704.34,245.71 705.96,245.68 707.58,245.64 709.20,245.60 710.82,245.56 712.44,245.51 714.06,245.45 715.68,245.40 717.30,245.34 718.92,245.28 720.54,245.21 722.16,245.14 723.78,245.07 725.40,244.99 727.02,244.92 728.64,244.84 730.26,244.76 731.88,244.67 733.49,244.59 735.11,244.50 736.73,244.41 738.35,244.32 739.97,244.23 741.59,244.13 743.21,244.04 744.83,243.94 746.45,243.84 748.07,243.74 749.69,243.64 751.31,243.54 752.93,243.44 754.55,243.34 756.17,243.23 757.79,243.13 759.41,243.03 761.02,242.92 762.64,242.82 764.26,242.72 765.88,242.61 767.50,242.51 769.12,242.41 770.74,242.30 772.36,242.20 773.98,242.10 775.60,242.00 777.22,241.90 778.84,241.80 780.46,241.70 782.08,241.60 783.70,241.50 785.32,241.41 786.94,241.31 788.56,241.22 790.17,241.13 791.79,241.04 793.41,240.95 795.03,240.86 796.65,240.77 798.27,240.68 799.89,240.60 801.51,240.52 803.13,240.43 804.75,240.35 806.37,240.28 807.99,240.20 809.61,240.12 811.23,240.05 812.85,239.98 814.47,239.91 816.09,239.84 817.71,239.77 819.33,239.71 820.94,239.65 822.56,239.58 824.18,239.52 825.80,239.47 827.42,239.41 829.04,239.35 830.66,239.30 832.28,239.25 833.90,239.20 835.52,239.15 837.14,239.10 838.76,239.06 840.38,239.01 842.00,238.97 843.62,238.93 845.24,238.89 846.86,238.86 848.48,238.82 850.09,238.78 851.71,238.75 853.33,238.72 854.95,238.69 856.57,238.66 858.19,238.63 859.81,238.61 861.43,238.58 863.05,238.56 864.67,238.54 866.29,238.51 867.91,238.49 869.53,238.48 871.15,238.46 872.77,238.44 874.39,238.43 876.01,238.42 877.62,238.40 879.24,238.39 880.86,238.38 882.48,238.37 884.10,238.37 885.72,238.36 887.34,238.36 888.96,238.35 890.58,238.35 892.20,238.35 893.82,238.35 895.44,238.35 897.06,238.35 898.68,238.36 900.30,238.36 901.92,238.36 903.54,238.37 905.16,238.38 906.77,238.39 908.39,238.40 910.01,238.41 911.63,238.42 913.25,238.43 914.87,238.45 916.49,238.46 918.11,238.48 919.73,238.49 921.35,238.51 922.97,238.53 924.59,238.55 926.21,238.57 927.83,238.59 929.45,238.62 931.07,238.64 932.69,238.67 934.31,238.69 935.92,238.72 937.54,238.75 939.16,238.77 940.78,238.80 942.40,238.83 944.02,238.87 945.64,238.90 947.26,238.93 948.88,238.96 950.50,239.00 952.12,239.03 953.74,239.07 955.36,239.11 956.98,239.15 958.60,239.19 960.22,239.22 961.84,239.27 963.46,239.31 965.08,239.35 966.69,239.39 968.31,239.43 969.93,239.48 971.55,239.52 973.17,239.57 974.79,239.62 976.41,239.66 978.03,239.71 979.65,239.76 981.27,239.81 982.89,239.86 984.51,239.91 986.13,239.96 987.75,240.01 989.37,240.07 990.99,240.12 992.61,240.17 994.23,240.23 995.84,240.28 997.46,240.34 999.08,240.40 1000.70,240.45 1002.32,240.51 1003.94,240.57 1005.56,240.63 1007.18,240.69 1008.80,240.75 1010.42,240.81 1012.04,240.87 1013.66,240.93 1015.28,240.99 1016.90,241.05 1018.52,241.12 1020.14,241.18 1021.76,241.24 1023.38,241.31 1024.99,241.37 1026.61,241.44 1028.23,241.50 1029.85,241.57 1031.47,241.64 1033.09,241.70 1034.71,241.77 1036.33,241.84 1037.95,241.91 1039.57,241.98 1041.19,242.05 1042.81,242.12 1044.43,242.19 1046.05,242.26 1047.67,242.33 1049.29,242.40 1050.91,242.47 1052.53,242.54 1054.14,242.62 1055.76,242.69 1057.38,242.76 1059.00,242.84 1060.62,242.91 1062.24,242.98 1063.86,243.06 1065.48,243.13 1067.10,243.21 1068.72,243.28 1070.34,243.36 1071.96,243.43 1073.58,243.51 1075.20,243.59 1076.82,243.66 1078.44,243.74 1080.06,243.82 1081.67,243.89 1083.29,243.97 1084.91,244.05 1086.53,244.13 1088.15,244.21 1089.77,244.28 1091.39,244.36 1093.01,244.44 1094.63,244.52 1096.25,244.60 1097.87,244.68 1099.49,244.76 1101.11,244.84 1102.73,244.92 1104.35,245.00 1105.97,245.08 1107.59,245.16 1109.21,245.24 1110.83,245.32 1112.44,245.40 1114.06,245.48 1115.68,245.56 1117.30,245.65 1118.92,245.73 1120.54,245.81 1122.16,245.89 1123.78,245.97 1125.40,246.05 1127.02,246.14 1128.64,246.22 1130.26,246.30 1131.88,246.38 1133.50,246.47 1135.12,246.55 1136.74,246.63 1138.36,246.71 1139.97,246.80 1141.59,246.88 1143.21,246.96 1144.83,247.04 1146.45,247.13 1148.07,247.21 1149.69,247.29 1151.31,247.38 1152.93,247.46 1154.55,247.54 1156.17,247.62 1157.79,247.71 1159.41,247.79 1161.03,247.87 1162.65,247.96 1164.27,248.04 1165.89,248.12 1167.51,248.21 1169.12,248.29 1170.74,248.37 1172.36,248.46 1173.98,248.54 1175.60,248.62 1177.22,248.70 1178.84,248.79 1180.46,248.87 1182.08,248.95 1183.70,249.04 1185.32,249.12 1186.94,249.20 1188.56,249.29 1190.18,249.37 1191.80,249.45 1193.42,249.53 1195.04,249.62 1196.66,249.70 1198.28,249.78 1199.89,249.86 1201.51,249.95 1203.13,250.03 1204.75,250.11 1206.37,250.19 1207.99,250.28 1209.61,250.36 1211.23,250.44 1212.85,250.52 1214.47,250.60 1216.09,250.69 1217.71,250.77 1219.33,250.85 1220.95,250.93 1222.57,251.01 1224.19,251.09 1225.81,251.17 1227.42,251.26 1229.04,251.34 1230.66,251.42 1232.28,251.50 1233.90,251.58 1235.52,251.66 1237.14,251.74 1238.76,251.82 1240.38,251.90 1242.00,251.98" />
<text x="1180" y="320" font-size="10" font-family="Arial">time, min</text>
<text x="28" y="320" font-size="10" font-family="Arial">glucose mmol/L</text>
<line x1="1080" y1="66" x2="1098" y2="66" stroke="#1f77b4" stroke-width="2"/>
<text x="1104" y="70" font-size="11" font-family="Arial">old RK4</text>
<line x1="1080" y1="80" x2="1098" y2="80" stroke="#d62728" stroke-width="2"/>
<text x="1104" y="84" font-size="11" font-family="Arial">new LSODA</text>
<rect x="20" y="350" width="1240" height="280" fill="white" stroke="#d0d7de"/>
<text x="28" y="368" font-size="14" font-family="Arial">Trajectory (tms=30)</text>
<line x1="76" y1="598" x2="1242" y2="598" stroke="#555"/>
<line x1="76" y1="378" x2="76" y2="598" stroke="#555"/>
<line x1="76" y1="378.00" x2="1242" y2="378.00" stroke="#f0f0f0"/>
<text x="24" y="382.00" font-size="10" font-family="Arial">16.14</text>
<line x1="76" y1="433.00" x2="1242" y2="433.00" stroke="#f0f0f0"/>
<text x="24" y="437.00" font-size="10" font-family="Arial">13.83</text>
<line x1="76" y1="488.00" x2="1242" y2="488.00" stroke="#f0f0f0"/>
<text x="24" y="492.00" font-size="10" font-family="Arial">11.53</text>
<line x1="76" y1="543.00" x2="1242" y2="543.00" stroke="#f0f0f0"/>
<text x="24" y="547.00" font-size="10" font-family="Arial">9.22</text>
<line x1="76" y1="598.00" x2="1242" y2="598.00" stroke="#f0f0f0"/>
<text x="24" y="602.00" font-size="10" font-family="Arial">6.92</text>
<line x1="76.00" y1="378" x2="76.00" y2="598" stroke="#f5f5f5"/>
<text x="66.00" y="614" font-size="10" font-family="Arial">0</text>
<line x1="309.20" y1="378" x2="309.20" y2="598" stroke="#f5f5f5"/>
<text x="299.20" y="614" font-size="10" font-family="Arial">144</text>
<line x1="542.40" y1="378" x2="542.40" y2="598" stroke="#f5f5f5"/>
<text x="532.40" y="614" font-size="10" font-family="Arial">288</text>
<line x1="775.60" y1="378" x2="775.60" y2="598" stroke="#f5f5f5"/>
<text x="765.60" y="614" font-size="10" font-family="Arial">432</text>
<line x1="1008.80" y1="378" x2="1008.80" y2="598" stroke="#f5f5f5"/>
<text x="998.80" y="614" font-size="10" font-family="Arial">576</text>
<line x1="1242.00" y1="378" x2="1242.00" y2="598" stroke="#f5f5f5"/>
<text x="1232.00" y="614" font-size="10" font-family="Arial">720</text>
<polyline fill="none" stroke="#1f77b4" stroke-width="1.6" points="76.00,484.39 77.62,462.73 79.24,445.55 80.86,432.02 82.48,421.45 84.10,413.30 85.72,407.14 87.34,402.66 88.96,399.13 90.58,396.60 92.19,394.89 93.81,393.83 95.43,393.29 97.05,393.17 98.67,393.38 100.29,393.86 101.91,394.53 103.53,395.36 105.15,396.30 106.77,397.33 108.39,398.43 110.01,399.56 111.63,400.72 113.25,401.90 114.87,403.08 116.49,404.26 118.11,405.43 119.72,406.59 121.34,407.74 122.96,408.87 124.58,409.99 126.20,411.09 127.82,412.17 129.44,413.25 131.06,414.32 132.68,415.38 134.30,416.44 135.92,417.50 137.54,418.56 139.16,419.63 140.78,420.71 142.40,421.79 144.02,422.89 145.64,424.01 147.26,425.13 148.88,426.28 150.49,427.44 152.11,428.63 153.73,429.83 155.35,431.05 156.97,432.29 158.59,433.55 160.21,434.83 161.83,436.12 163.45,437.44 165.07,438.77 166.69,440.12 168.31,441.48 169.93,442.87 171.55,444.27 173.17,445.68 174.79,447.12 176.41,448.58 178.03,450.06 179.64,451.56 181.26,453.09 182.88,454.65 184.50,456.24 186.12,457.85 187.74,459.50 189.36,461.18 190.98,462.89 192.60,464.63 194.22,466.41 195.84,468.22 197.46,470.06 199.08,471.93 200.70,473.82 202.32,475.74 203.94,477.69 205.56,479.66 207.18,481.65 208.79,483.66 210.41,485.68 212.03,487.71 213.65,489.75 215.27,491.79 216.89,493.84 218.51,495.89 220.13,497.93 221.75,499.97 223.37,502.00 224.99,504.01 226.61,506.00 228.23,507.94 229.85,509.86 231.47,511.74 233.09,513.59 234.71,515.43 236.32,517.29 237.94,519.15 239.56,520.98 241.18,522.74 242.80,524.35 244.42,525.71 246.04,526.68 247.66,527.10 249.28,526.87 250.90,525.91 252.52,524.17 254.14,521.63 255.76,518.30 257.38,514.22 259.00,509.51 260.62,504.38 262.24,498.90 263.86,493.15 265.48,487.21 267.09,481.15 268.71,475.07 270.33,469.02 271.95,463.10 273.57,457.36 275.19,451.85 276.81,446.62 278.43,441.70 280.05,437.12 281.67,432.89 283.29,429.00 284.91,425.47 286.53,422.29 288.15,419.44 289.77,416.91 291.39,414.69 293.01,412.77 294.62,411.12 296.24,409.73 297.86,408.58 299.48,407.65 301.10,406.94 302.72,406.42 304.34,406.08 305.96,405.91 307.58,405.88 309.20,406.00 310.82,406.24 312.44,406.60 314.06,407.07 315.68,407.63 317.30,408.28 318.92,409.01 320.54,409.81 322.16,410.67 323.77,411.58 325.39,412.55 327.01,413.55 328.63,414.60 330.25,415.68 331.87,416.78 333.49,417.91 335.11,419.06 336.73,420.22 338.35,421.39 339.97,422.57 341.59,423.76 343.21,424.95 344.83,426.14 346.45,427.33 348.07,428.51 349.69,429.69 351.31,430.86 352.93,432.02 354.54,433.17 356.16,434.30 357.78,435.43 359.40,436.54 361.02,437.63 362.64,438.71 364.26,439.77 365.88,440.81 367.50,441.84 369.12,442.84 370.74,443.83 372.36,444.80 373.98,445.75 375.60,446.68 377.22,447.59 378.84,448.48 380.46,449.35 382.07,450.20 383.69,451.03 385.31,451.84 386.93,452.63 388.55,453.40 390.17,454.15 391.79,454.88 393.41,455.59 395.03,456.29 396.65,456.96 398.27,457.61 399.89,458.25 401.51,458.86 403.13,459.46 404.75,460.04 406.37,460.61 407.99,461.15 409.61,461.68 411.23,462.19 412.84,462.69 414.46,463.17 416.08,463.63 417.70,464.07 419.32,464.50 420.94,464.92 422.56,465.32 424.18,465.70 425.80,466.07 427.42,466.43 429.04,466.77 430.66,467.10 432.28,467.41 433.90,467.71 435.52,467.99 437.14,468.27 438.76,468.53 440.38,468.77 441.99,469.01 443.61,469.23 445.23,469.44 446.85,469.63 448.47,469.82 450.09,469.99 451.71,470.15 453.33,470.30 454.95,470.43 456.57,470.56 458.19,470.67 459.81,470.77 461.43,470.86 463.05,470.93 464.67,471.00 466.29,471.05 467.91,471.09 469.52,471.12 471.14,471.14 472.76,471.14 474.38,471.13 476.00,471.11 477.62,471.08 479.24,471.03 480.86,470.97 482.48,470.89 484.10,470.81 485.72,470.70 487.34,470.58 488.96,470.45 490.58,470.29 492.20,470.12 493.82,469.94 495.44,469.73 497.06,469.51 498.68,469.26 500.29,468.99 501.91,468.70 503.53,468.39 505.15,468.05 506.77,467.68 508.39,467.28 510.01,466.85 511.63,466.39 513.25,465.90 514.87,465.36 516.49,464.79 518.11,464.17 519.73,463.51 521.35,462.80 522.97,462.04 524.59,461.23 526.21,460.36 527.83,459.44 529.44,458.46 531.06,457.43 532.68,456.34 534.30,455.21 535.92,454.04 537.54,452.82 539.16,451.58 540.78,450.32 542.40,449.05 544.02,447.78 545.64,446.52 547.26,445.28 548.88,444.07 550.50,442.90 552.12,441.77 553.74,440.69 555.36,439.66 556.98,438.70 558.59,437.80 560.21,436.96 561.83,436.19 563.45,435.48 565.07,434.85 566.69,434.28 568.31,433.78 569.93,433.35 571.55,432.98 573.17,432.67 574.79,432.43 576.41,432.24 578.03,432.11 579.65,432.04 581.27,432.01 582.89,432.04 584.51,432.11 586.12,432.22 587.74,432.38 589.36,432.58 590.98,432.81 592.60,433.08 594.22,433.38 595.84,433.72 597.46,434.07 599.08,434.46 600.70,434.87 602.32,435.30 603.94,435.75 605.56,436.22 607.18,436.70 608.80,437.20 610.42,437.72 612.04,438.24 613.66,438.77 615.27,439.32 616.89,439.87 618.51,440.43 620.13,440.99 621.75,441.55 623.37,442.12 624.99,442.70 626.61,443.27 628.23,443.84 629.85,444.41 631.47,444.98 633.09,445.55 634.71,446.12 636.33,446.68 637.95,447.24 639.57,447.79 641.19,448.34 642.81,448.89 644.42,449.43 646.04,449.96 647.66,450.48 649.28,451.00 650.90,451.51 652.52,452.02 654.14,452.51 655.76,453.00 657.38,453.48 659.00,453.96 660.62,454.42 662.24,454.88 663.86,455.32 665.48,455.76 667.10,456.19 668.72,456.61 670.34,457.02 671.96,457.43 673.58,457.82 675.19,458.21 676.81,458.58 678.43,458.95 680.05,459.31 681.67,459.66 683.29,460.00 684.91,460.33 686.53,460.66 688.15,460.97 689.77,461.28 691.39,461.58 693.01,461.87 694.63,462.15 696.25,462.43 697.87,462.69 699.49,462.95 701.11,463.20 702.73,463.44 704.34,463.68 705.96,463.91 707.58,464.13 709.20,464.34 710.82,464.54 712.44,464.74 714.06,464.93 715.68,465.12 717.30,465.30 718.92,465.47 720.54,465.64 722.16,465.79 723.78,465.95 725.40,466.09 727.02,466.23 728.64,466.37 730.26,466.50 731.88,466.62 733.49,466.74 735.11,466.85 736.73,466.96 738.35,467.06 739.97,467.16 741.59,467.25 743.21,467.34 744.83,467.43 746.45,467.50 748.07,467.58 749.69,467.65 751.31,467.71 752.93,467.77 754.55,467.83 756.17,467.89 757.79,467.93 759.41,467.98 761.02,468.02 762.64,468.06 764.26,468.10 765.88,468.13 767.50,468.16 769.12,468.18 770.74,468.20 772.36,468.22 773.98,468.24 775.60,468.25 777.22,468.26 778.84,468.27 780.46,468.28 782.08,468.28 783.70,468.28 785.32,468.28 786.94,468.27 788.56,468.27 790.17,468.26 791.79,468.25 793.41,468.23 795.03,468.22 796.65,468.20 798.27,468.18 799.89,468.16 801.51,468.14 803.13,468.11 804.75,468.09 806.37,468.06 807.99,468.03 809.61,468.00 811.23,467.97 812.85,467.94 814.47,467.90 816.09,467.87 817.71,467.83 819.33,467.79 820.94,467.75 822.56,467.71 824.18,467.67 825.80,467.63 827.42,467.58 829.04,467.54 830.66,467.49 832.28,467.45 833.90,467.40 835.52,467.35 837.14,467.30 838.76,467.25 840.38,467.20 842.00,467.15 843.62,467.10 845.24,467.05 846.86,467.00 848.48,466.94 850.09,466.89 851.71,466.83 853.33,466.78 854.95,466.72 856.57,466.67 858.19,466.61 859.81,466.56 861.43,466.50 863.05,466.44 864.67,466.39 866.29,466.33 867.91,466.27 869.53,466.21 871.15,466.16 872.77,466.10 874.39,466.04 876.01,465.98 877.62,465.92 879.24,465.86 880.86,465.80 882.48,465.75 884.10,465.69 885.72,465.63 887.34,465.57 888.96,465.51 890.58,465.45 892.20,465.39 893.82,465.33 895.44,465.27 897.06,465.21 898.68,465.16 900.30,465.10 901.92,465.04 903.54,464.98 905.16,464.92 906.77,464.86 908.39,464.80 910.01,464.75 911.63,464.69 913.25,464.63 914.87,464.57 916.49,464.51 918.11,464.46 919.73,464.40 921.35,464.34 922.97,464.29 924.59,464.23 926.21,464.17 927.83,464.12 929.45,464.06 931.07,464.01 932.69,463.95 934.31,463.89 935.92,463.84 937.54,463.78 939.16,463.73 940.78,463.68 942.40,463.62 944.02,463.57 945.64,463.52 947.26,463.46 948.88,463.41 950.50,463.36 952.12,463.30 953.74,463.25 955.36,463.20 956.98,463.15 958.60,463.10 960.22,463.05 961.84,463.00 963.46,462.95 965.08,462.90 966.69,462.85 968.31,462.80 969.93,462.75 971.55,462.70 973.17,462.65 974.79,462.60 976.41,462.56 978.03,462.51 979.65,462.46 981.27,462.42 982.89,462.37 984.51,462.32 986.13,462.28 987.75,462.23 989.37,462.19 990.99,462.14 992.61,462.10 994.23,462.05 995.84,462.01 997.46,461.97 999.08,461.92 1000.70,461.88 1002.32,461.84 1003.94,461.80 1005.56,461.75 1007.18,461.71 1008.80,461.67 1010.42,461.63 1012.04,461.59 1013.66,461.55 1015.28,461.51 1016.90,461.47 1018.52,461.43 1020.14,461.39 1021.76,461.35 1023.38,461.32 1024.99,461.28 1026.61,461.24 1028.23,461.20 1029.85,461.17 1031.47,461.13 1033.09,461.09 1034.71,461.06 1036.33,461.02 1037.95,460.98 1039.57,460.95 1041.19,460.91 1042.81,460.88 1044.43,460.85 1046.05,460.81 1047.67,460.78 1049.29,460.74 1050.91,460.71 1052.53,460.68 1054.14,460.65 1055.76,460.61 1057.38,460.58 1059.00,460.55 1060.62,460.52 1062.24,460.49 1063.86,460.46 1065.48,460.43 1067.10,460.40 1068.72,460.37 1070.34,460.34 1071.96,460.31 1073.58,460.28 1075.20,460.25 1076.82,460.22 1078.44,460.19 1080.06,460.16 1081.67,460.13 1083.29,460.11 1084.91,460.08 1086.53,460.05 1088.15,460.03 1089.77,460.00 1091.39,459.97 1093.01,459.95 1094.63,459.92 1096.25,459.89 1097.87,459.87 1099.49,459.84 1101.11,459.82 1102.73,459.79 1104.35,459.77 1105.97,459.75 1107.59,459.72 1109.21,459.70 1110.83,459.67 1112.44,459.65 1114.06,459.63 1115.68,459.60 1117.30,459.58 1118.92,459.56 1120.54,459.54 1122.16,459.52 1123.78,459.49 1125.40,459.47 1127.02,459.45 1128.64,459.43 1130.26,459.41 1131.88,459.39 1133.50,459.37 1135.12,459.35 1136.74,459.33 1138.36,459.31 1139.97,459.29 1141.59,459.27 1143.21,459.25 1144.83,459.23 1146.45,459.21 1148.07,459.19 1149.69,459.17 1151.31,459.16 1152.93,459.14 1154.55,459.12 1156.17,459.10 1157.79,459.08 1159.41,459.07 1161.03,459.05 1162.65,459.03 1164.27,459.01 1165.89,459.00 1167.51,458.98 1169.12,458.96 1170.74,458.95 1172.36,458.93 1173.98,458.92 1175.60,458.90 1177.22,458.89 1178.84,458.87 1180.46,458.85 1182.08,458.84 1183.70,458.82 1185.32,458.81 1186.94,458.79 1188.56,458.78 1190.18,458.77 1191.80,458.75 1193.42,458.74 1195.04,458.72 1196.66,458.71 1198.28,458.70 1199.89,458.68 1201.51,458.67 1203.13,458.66 1204.75,458.64 1206.37,458.63 1207.99,458.62 1209.61,458.60 1211.23,458.59 1212.85,458.58 1214.47,458.57 1216.09,458.56 1217.71,458.54 1219.33,458.53 1220.95,458.52 1222.57,458.51 1224.19,458.50 1225.81,458.49 1227.42,458.47 1229.04,458.46 1230.66,458.45 1232.28,458.44 1233.90,458.43 1235.52,458.42 1237.14,458.41 1238.76,458.40 1240.38,458.39 1242.00,458.38" />
<polyline fill="none" stroke="#d62728" stroke-width="1.6" points="76.00,484.39 77.62,462.73 79.24,445.55 80.86,432.02 82.48,421.45 84.10,413.30 85.72,407.14 87.34,402.66 88.96,399.62 90.58,397.72 92.19,396.75 93.81,396.50 95.43,396.84 97.05,397.62 98.67,398.76 100.29,400.17 101.91,401.78 103.53,403.55 105.15,405.42 106.77,407.37 108.39,409.37 110.01,411.40 111.63,413.43 113.25,415.46 114.87,417.48 116.49,419.48 118.11,421.45 119.72,423.39 121.34,425.29 122.96,427.16 124.58,429.00 126.20,430.81 127.82,432.58 129.44,434.33 131.06,436.05 132.68,437.75 134.30,439.43 135.92,441.09 137.54,442.74 139.16,444.38 140.78,446.02 142.40,447.65 144.02,449.28 145.64,450.90 147.26,452.53 148.88,454.16 150.49,455.80 152.11,457.44 153.73,459.09 155.35,460.74 156.97,462.40 158.59,464.06 160.21,465.74 161.83,467.41 163.45,469.10 165.07,470.78 166.69,472.48 168.31,474.18 169.93,475.88 171.55,477.59 173.17,479.30 174.79,481.03 176.41,482.76 178.03,484.50 179.64,486.26 181.26,488.02 182.88,489.81 184.50,491.61 186.12,493.43 187.74,495.27 189.36,497.13 190.98,499.00 192.60,500.90 194.22,502.82 195.84,504.76 197.46,506.71 199.08,508.69 200.70,510.68 202.32,512.68 203.94,514.71 205.56,516.84 207.18,519.07 208.79,521.39 210.41,523.79 212.03,526.26 213.65,528.80 215.27,531.40 216.89,534.06 218.51,536.76 220.13,539.51 221.75,542.30 223.37,545.12 224.99,547.97 226.61,550.82 228.23,553.67 229.85,556.53 231.47,559.39 233.09,562.23 234.71,565.04 236.32,567.82 237.94,570.54 239.56,573.19 241.18,575.70 242.80,578.02 244.42,580.03 246.04,581.59 247.66,582.56 249.28,582.83 250.90,582.33 252.52,581.02 254.14,578.88 255.76,575.93 257.38,572.20 259.00,567.73 260.62,562.57 262.24,556.81 263.86,550.51 265.48,543.74 267.09,536.61 268.71,529.19 270.33,521.58 271.95,513.87 273.57,506.31 275.19,499.14 276.81,492.39 278.43,486.08 280.05,480.22 281.67,474.80 283.29,469.82 284.91,465.28 286.53,461.16 288.15,457.44 289.77,454.10 291.39,451.13 293.01,448.50 294.62,446.20 296.24,444.20 297.86,442.48 299.48,441.02 301.10,439.80 302.72,438.81 304.34,438.03 305.96,437.44 307.58,437.02 309.20,436.77 310.82,436.66 312.44,436.69 314.06,436.84 315.68,437.10 317.30,437.47 318.92,437.92 320.54,438.46 322.16,439.07 323.77,439.75 325.39,440.48 327.01,441.27 328.63,442.11 330.25,442.98 331.87,443.89 333.49,444.83 335.11,445.80 336.73,446.78 338.35,447.79 339.97,448.80 341.59,449.83 343.21,450.86 344.83,451.90 346.45,452.94 348.07,453.98 349.69,455.01 351.31,456.04 352.93,457.07 354.54,458.08 356.16,459.09 357.78,460.08 359.40,461.06 361.02,462.03 362.64,462.98 364.26,463.91 365.88,464.83 367.50,465.74 369.12,466.62 370.74,467.49 372.36,468.34 373.98,469.17 375.60,469.98 377.22,470.78 378.84,471.55 380.46,472.30 382.07,473.03 383.69,473.75 385.31,474.44 386.93,475.11 388.55,475.77 390.17,476.40 391.79,477.01 393.41,477.61 395.03,478.18 396.65,478.74 398.27,479.27 399.89,479.79 401.51,480.29 403.13,480.77 404.75,481.23 406.37,481.68 407.99,482.11 409.61,482.51 411.23,482.91 412.84,483.28 414.46,483.64 416.08,483.98 417.70,484.31 419.32,484.62 420.94,484.91 422.56,485.19 424.18,485.46 425.80,485.71 427.42,485.94 429.04,486.16 430.66,486.37 432.28,486.56 433.90,486.74 435.52,486.90 437.14,487.05 438.76,487.19 440.38,487.32 441.99,487.43 443.61,487.53 445.23,487.62 446.85,487.69 448.47,487.75 450.09,487.81 451.71,487.85 453.33,487.87 454.95,487.89 456.57,487.89 458.19,487.89 459.81,487.87 461.43,487.84 463.05,487.80 464.67,487.74 466.29,487.68 467.91,487.60 469.52,487.51 471.14,487.41 472.76,487.30 474.38,487.18 476.00,487.04 477.62,486.89 479.24,486.73 480.86,486.56 482.48,486.37 484.10,486.17 485.72,485.95 487.34,485.72 488.96,485.48 490.58,485.22 492.20,484.94 493.82,484.65 495.44,484.34 497.06,484.01 498.68,483.66 500.29,483.29 501.91,482.89 503.53,482.48 505.15,482.04 506.77,481.57 508.39,481.08 510.01,480.56 511.63,480.00 513.25,479.42 514.87,478.79 516.49,478.13 518.11,477.43 519.73,476.68 521.35,475.89 522.97,475.05 524.59,474.16 526.21,473.22 527.83,472.22 529.44,471.17 531.06,470.06 532.68,468.90 534.30,467.69 535.92,466.44 537.54,465.15 539.16,463.82 540.78,462.48 542.40,461.12 544.02,459.76 545.64,458.40 547.26,457.06 548.88,455.75 550.50,454.47 552.12,453.23 553.74,452.04 555.36,450.91 556.98,449.83 558.59,448.82 560.21,447.87 561.83,446.98 563.45,446.17 565.07,445.43 566.69,444.75 568.31,444.14 569.93,443.61 571.55,443.13 573.17,442.72 574.79,442.38 576.41,442.09 578.03,441.86 579.65,441.69 581.27,441.57 582.89,441.50 584.51,441.49 586.12,441.51 587.74,441.59 589.36,441.70 590.98,441.85 592.60,442.04 594.22,442.26 595.84,442.52 597.46,442.80 599.08,443.11 600.70,443.45 602.32,443.81 603.94,444.19 605.56,444.59 607.18,445.01 608.80,445.45 610.42,445.90 612.04,446.36 613.66,446.84 615.27,447.32 616.89,447.82 618.51,448.32 620.13,448.83 621.75,449.34 623.37,449.86 624.99,450.38 626.61,450.90 628.23,451.43 629.85,451.96 631.47,452.48 633.09,453.00 634.71,453.53 636.33,454.05 637.95,454.57 639.57,455.08 641.19,455.59 642.81,456.10 644.42,456.60 646.04,457.09 647.66,457.58 649.28,458.07 650.90,458.55 652.52,459.02 654.14,459.48 655.76,459.94 657.38,460.39 659.00,460.83 660.62,461.27 662.24,461.70 663.86,462.12 665.48,462.53 667.10,462.94 668.72,463.33 670.34,463.72 671.96,464.10 673.58,464.47 675.19,464.84 676.81,465.19 678.43,465.54 680.05,465.88 681.67,466.21 683.29,466.54 684.91,466.85 686.53,467.16 688.15,467.46 689.77,467.76 691.39,468.04 693.01,468.32 694.63,468.59 696.25,468.85 697.87,469.10 699.49,469.35 701.11,469.59 702.73,469.83 704.34,470.05 705.96,470.27 707.58,470.49 709.20,470.69 710.82,470.89 712.44,471.09 714.06,471.28 715.68,471.46 717.30,471.63 718.92,471.80 720.54,471.97 722.16,472.13 723.78,472.28 725.40,472.43 727.02,472.57 728.64,472.71 730.26,472.84 731.88,472.97 733.49,473.09 735.11,473.21 736.73,473.33 738.35,473.44 739.97,473.54 741.59,473.64 743.21,473.74 744.83,473.83 746.45,473.92 748.07,474.01 749.69,474.09 751.31,474.17 752.93,474.25 754.55,474.32 756.17,474.39 757.79,474.46 759.41,474.52 761.02,474.58 762.64,474.64 764.26,474.69 765.88,474.75 767.50,474.80 769.12,474.84 770.74,474.89 772.36,474.93 773.98,474.97 775.60,475.01 777.22,475.05 778.84,475.09 780.46,475.12 782.08,475.15 783.70,475.18 785.32,475.21 786.94,475.24 788.56,475.26 790.17,475.29 791.79,475.31 793.41,475.33 795.03,475.35 796.65,475.37 798.27,475.39 799.89,475.41 801.51,475.43 803.13,475.44 804.75,475.46 806.37,475.47 807.99,475.48 809.61,475.50 811.23,475.51 812.85,475.52 814.47,475.53 816.09,475.54 817.71,475.55 819.33,475.56 820.94,475.57 822.56,475.58 824.18,475.58 825.80,475.59 827.42,475.60 829.04,475.61 830.66,475.61 832.28,475.62 833.90,475.63 835.52,475.63 837.14,475.64 838.76,475.65 840.38,475.65 842.00,475.66 843.62,475.66 845.24,475.67 846.86,475.67 848.48,475.68 850.09,475.69 851.71,475.69 853.33,475.70 854.95,475.70 856.57,475.71 858.19,475.72 859.81,475.72 861.43,475.73 863.05,475.74 864.67,475.74 866.29,475.75 867.91,475.76 869.53,475.77 871.15,475.78 872.77,475.78 874.39,475.79 876.01,475.80 877.62,475.81 879.24,475.82 880.86,475.83 882.48,475.84 884.10,475.85 885.72,475.86 887.34,475.87 888.96,475.88 890.58,475.89 892.20,475.91 893.82,475.92 895.44,475.93 897.06,475.94 898.68,475.96 900.30,475.97 901.92,475.99 903.54,476.00 905.16,476.02 906.77,476.03 908.39,476.05 910.01,476.06 911.63,476.08 913.25,476.10 914.87,476.11 916.49,476.13 918.11,476.15 919.73,476.17 921.35,476.19 922.97,476.21 924.59,476.23 926.21,476.25 927.83,476.27 929.45,476.29 931.07,476.31 932.69,476.34 934.31,476.36 935.92,476.38 937.54,476.40 939.16,476.43 940.78,476.45 942.40,476.48 944.02,476.50 945.64,476.53 947.26,476.55 948.88,476.58 950.50,476.61 952.12,476.64 953.74,476.66 955.36,476.69 956.98,476.72 958.60,476.75 960.22,476.78 961.84,476.81 963.46,476.84 965.08,476.87 966.69,476.90 968.31,476.93 969.93,476.96 971.55,477.00 973.17,477.03 974.79,477.06 976.41,477.10 978.03,477.13 979.65,477.16 981.27,477.20 982.89,477.23 984.51,477.27 986.13,477.30 987.75,477.34 989.37,477.38 990.99,477.41 992.61,477.45 994.23,477.49 995.84,477.53 997.46,477.56 999.08,477.60 1000.70,477.64 1002.32,477.68 1003.94,477.72 1005.56,477.76 1007.18,477.80 1008.80,477.84 1010.42,477.88 1012.04,477.92 1013.66,477.97 1015.28,478.01 1016.90,478.05 1018.52,478.09 1020.14,478.13 1021.76,478.18 1023.38,478.22 1024.99,478.26 1026.61,478.31 1028.23,478.35 1029.85,478.40 1031.47,478.44 1033.09,478.49 1034.71,478.53 1036.33,478.58 1037.95,478.62 1039.57,478.67 1041.19,478.72 1042.81,478.76 1044.43,478.81 1046.05,478.86 1047.67,478.90 1049.29,478.95 1050.91,479.00 1052.53,479.05 1054.14,479.09 1055.76,479.14 1057.38,479.19 1059.00,479.24 1060.62,479.29 1062.24,479.34 1063.86,479.39 1065.48,479.44 1067.10,479.49 1068.72,479.54 1070.34,479.59 1071.96,479.64 1073.58,479.69 1075.20,479.74 1076.82,479.79 1078.44,479.84 1080.06,479.89 1081.67,479.94 1083.29,479.99 1084.91,480.05 1086.53,480.10 1088.15,480.15 1089.77,480.20 1091.39,480.25 1093.01,480.31 1094.63,480.36 1096.25,480.41 1097.87,480.46 1099.49,480.52 1101.11,480.57 1102.73,480.62 1104.35,480.68 1105.97,480.73 1107.59,480.78 1109.21,480.84 1110.83,480.89 1112.44,480.94 1114.06,481.00 1115.68,481.05 1117.30,481.11 1118.92,481.16 1120.54,481.21 1122.16,481.27 1123.78,481.32 1125.40,481.38 1127.02,481.43 1128.64,481.49 1130.26,481.54 1131.88,481.59 1133.50,481.65 1135.12,481.70 1136.74,481.76 1138.36,481.81 1139.97,481.87 1141.59,481.92 1143.21,481.98 1144.83,482.03 1146.45,482.09 1148.07,482.14 1149.69,482.20 1151.31,482.25 1152.93,482.31 1154.55,482.36 1156.17,482.42 1157.79,482.47 1159.41,482.53 1161.03,482.58 1162.65,482.64 1164.27,482.69 1165.89,482.75 1167.51,482.81 1169.12,482.86 1170.74,482.92 1172.36,482.97 1173.98,483.03 1175.60,483.08 1177.22,483.14 1178.84,483.19 1180.46,483.25 1182.08,483.30 1183.70,483.36 1185.32,483.41 1186.94,483.47 1188.56,483.52 1190.18,483.58 1191.80,483.63 1193.42,483.69 1195.04,483.74 1196.66,483.80 1198.28,483.85 1199.89,483.91 1201.51,483.96 1203.13,484.02 1204.75,484.07 1206.37,484.13 1207.99,484.18 1209.61,484.24 1211.23,484.29 1212.85,484.35 1214.47,484.40 1216.09,484.46 1217.71,484.51 1219.33,484.56 1220.95,484.62 1222.57,484.67 1224.19,484.73 1225.81,484.78 1227.42,484.83 1229.04,484.89 1230.66,484.94 1232.28,485.00 1233.90,485.05 1235.52,485.10 1237.14,485.16 1238.76,485.21 1240.38,485.27 1242.00,485.32" />
<text x="1180" y="620" font-size="10" font-family="Arial">time, min</text>
<text x="28" y="620" font-size="10" font-family="Arial">glucose mmol/L</text>
<line x1="1080" y1="366" x2="1098" y2="366" stroke="#1f77b4" stroke-width="2"/>
<text x="1104" y="370" font-size="11" font-family="Arial">old RK4</text>
<line x1="1080" y1="380" x2="1098" y2="380" stroke="#d62728" stroke-width="2"/>
<text x="1104" y="384" font-size="11" font-family="Arial">new LSODA</text>
<rect x="20" y="650" width="1240" height="280" fill="white" stroke="#d0d7de"/>
<text x="28" y="668" font-size="14" font-family="Arial">Difference (new-old) in mmol/L</text>
<line x1="76" y1="898" x2="1242" y2="898" stroke="#555"/>
<line x1="76" y1="678" x2="76" y2="898" stroke="#555"/>
<line x1="76" y1="678.00" x2="1242" y2="678.00" stroke="#f0f0f0"/>
<text x="24" y="682.00" font-size="10" font-family="Arial">0.20</text>
<line x1="76" y1="733.00" x2="1242" y2="733.00" stroke="#f0f0f0"/>
<text x="24" y="737.00" font-size="10" font-family="Arial">-0.51</text>
<line x1="76" y1="788.00" x2="1242" y2="788.00" stroke="#f0f0f0"/>
<text x="24" y="792.00" font-size="10" font-family="Arial">-1.22</text>
<line x1="76" y1="843.00" x2="1242" y2="843.00" stroke="#f0f0f0"/>
<text x="24" y="847.00" font-size="10" font-family="Arial">-1.93</text>
<line x1="76" y1="898.00" x2="1242" y2="898.00" stroke="#f0f0f0"/>
<text x="24" y="902.00" font-size="10" font-family="Arial">-2.64</text>
<line x1="76.00" y1="678" x2="76.00" y2="898" stroke="#f5f5f5"/>
<text x="66.00" y="914" font-size="10" font-family="Arial">0</text>
<line x1="309.20" y1="678" x2="309.20" y2="898" stroke="#f5f5f5"/>
<text x="299.20" y="914" font-size="10" font-family="Arial">144</text>
<line x1="542.40" y1="678" x2="542.40" y2="898" stroke="#f5f5f5"/>
<text x="532.40" y="914" font-size="10" font-family="Arial">288</text>
<line x1="775.60" y1="678" x2="775.60" y2="898" stroke="#f5f5f5"/>
<text x="765.60" y="914" font-size="10" font-family="Arial">432</text>
<line x1="1008.80" y1="678" x2="1008.80" y2="898" stroke="#f5f5f5"/>
<text x="998.80" y="914" font-size="10" font-family="Arial">576</text>
<line x1="1242.00" y1="678" x2="1242.00" y2="898" stroke="#f5f5f5"/>
<text x="1232.00" y="914" font-size="10" font-family="Arial">720</text>
<polyline fill="none" stroke="#2ca02c" stroke-width="1.6" points="76.00,693.17 77.62,693.17 79.24,693.17 80.86,693.17 82.48,693.17 84.10,693.17 85.72,693.17 87.34,693.19 88.96,694.76 90.58,696.83 92.19,699.24 93.81,701.90 95.43,704.73 97.05,707.67 98.67,710.69 100.29,713.74 101.91,716.81 103.53,719.86 105.15,722.89 106.77,725.88 108.39,728.83 110.01,731.73 111.63,734.57 113.25,737.36 114.87,740.08 116.49,742.74 118.11,745.34 119.72,747.87 121.34,750.35 122.96,752.76 124.58,755.12 126.20,757.41 127.82,759.65 129.44,761.83 131.06,763.96 132.68,766.03 134.30,768.06 135.92,770.02 137.54,771.94 139.16,773.81 140.78,775.63 142.40,777.40 144.02,779.12 145.64,780.79 147.26,782.42 148.88,784.01 150.49,785.55 152.11,787.04 153.73,788.49 155.35,789.90 156.97,791.26 158.59,792.59 160.21,793.87 161.83,795.11 163.45,796.31 165.07,797.47 166.69,798.59 168.31,799.67 169.93,800.72 171.55,801.72 173.17,802.69 174.79,803.62 176.41,804.51 178.03,805.35 179.64,806.16 181.26,806.93 182.88,807.66 184.50,808.35 186.12,809.00 187.74,809.60 189.36,810.16 190.98,810.66 192.60,811.09 194.22,811.44 195.84,811.69 197.46,811.83 199.08,811.87 200.70,811.83 202.32,811.74 203.94,811.60 205.56,811.43 207.18,811.23 208.79,810.97 210.41,810.65 212.03,810.26 213.65,809.79 215.27,809.24 216.89,808.60 218.51,807.87 220.13,807.05 221.75,806.16 223.37,805.21 224.99,804.20 226.61,803.16 228.23,802.10 229.85,801.04 231.47,800.00 233.09,798.98 234.71,798.00 236.32,797.06 237.94,796.16 239.56,795.31 241.18,794.50 242.80,793.74 244.42,793.03 246.04,792.36 247.66,791.73 249.28,791.14 250.90,790.59 252.52,790.07 254.14,789.57 255.76,789.11 257.38,788.67 259.00,788.26 260.62,787.86 262.24,787.48 263.86,787.12 265.48,786.78 267.09,786.44 268.71,786.12 270.33,785.81 271.95,785.51 273.57,785.21 275.19,784.93 276.81,784.64 278.43,784.37 280.05,784.09 281.67,783.82 283.29,783.56 284.91,783.29 286.53,783.03 288.15,782.76 289.77,782.50 291.39,782.24 293.01,781.97 294.62,781.71 296.24,781.44 297.86,781.17 299.48,780.90 301.10,780.63 302.72,780.35 304.34,780.07 305.96,779.79 307.58,779.50 309.20,779.21 310.82,778.91 312.44,778.62 314.06,778.31 315.68,778.01 317.30,777.69 318.92,777.38 320.54,777.06 322.16,776.73 323.77,776.40 325.39,776.07 327.01,775.73 328.63,775.38 330.25,775.03 331.87,774.68 333.49,774.32 335.11,773.96 336.73,773.59 338.35,773.22 339.97,772.84 341.59,772.46 343.21,772.08 344.83,771.69 346.45,771.29 348.07,770.90 349.69,770.50 351.31,770.09 352.93,769.68 354.54,769.27 356.16,768.86 357.78,768.44 359.40,768.02 361.02,767.59 362.64,767.17 364.26,766.74 365.88,766.31 367.50,765.87 369.12,765.44 370.74,765.00 372.36,764.56 373.98,764.11 375.60,763.67 377.22,763.22 378.84,762.78 380.46,762.33 382.07,761.88 383.69,761.43 385.31,760.97 386.93,760.52 388.55,760.06 390.17,759.61 391.79,759.15 393.41,758.70 395.03,758.24 396.65,757.78 398.27,757.33 399.89,756.87 401.51,756.41 403.13,755.96 404.75,755.50 406.37,755.04 407.99,754.59 409.61,754.13 411.23,753.67 412.84,753.22 414.46,752.76 416.08,752.31 417.70,751.86 419.32,751.41 420.94,750.96 422.56,750.51 424.18,750.06 425.80,749.61 427.42,749.17 429.04,748.72 430.66,748.28 432.28,747.84 433.90,747.40 435.52,746.97 437.14,746.53 438.76,746.10 440.38,745.67 441.99,745.24 443.61,744.82 445.23,744.40 446.85,743.98 448.47,743.56 450.09,743.15 451.71,742.74 453.33,742.34 454.95,741.94 456.57,741.55 458.19,741.16 459.81,740.77 461.43,740.39 463.05,740.02 464.67,739.65 466.29,739.29 467.91,738.93 469.52,738.58 471.14,738.24 472.76,737.90 474.38,737.57 476.00,737.25 477.62,736.93 479.24,736.62 480.86,736.31 482.48,736.00 484.10,735.69 485.72,735.38 487.34,735.06 488.96,734.74 490.58,734.40 492.20,734.06 493.82,733.71 495.44,733.35 497.06,732.98 498.68,732.59 500.29,732.20 501.91,731.80 503.53,731.39 505.15,730.98 506.77,730.57 508.39,730.15 510.01,729.73 511.63,729.31 513.25,728.90 514.87,728.48 516.49,728.07 518.11,727.67 519.73,727.26 521.35,726.86 522.97,726.47 524.59,726.09 526.21,725.70 527.83,725.33 529.44,724.96 531.06,724.60 532.68,724.24 534.30,723.90 535.92,723.55 537.54,723.22 539.16,722.89 540.78,722.56 542.40,722.25 544.02,721.94 545.64,721.63 547.26,721.33 548.88,721.04 550.50,720.75 552.12,720.47 553.74,720.19 555.36,719.92 556.98,719.66 558.59,719.40 560.21,719.14 561.83,718.89 563.45,718.65 565.07,718.41 566.69,718.17 568.31,717.94 569.93,717.71 571.55,717.49 573.17,717.27 574.79,717.06 576.41,716.85 578.03,716.64 579.65,716.44 581.27,716.24 582.89,716.04 584.51,715.85 586.12,715.66 587.74,715.47 589.36,715.29 590.98,715.11 592.60,714.94 594.22,714.77 595.84,714.60 597.46,714.43 599.08,714.27 600.70,714.11 602.32,713.95 603.94,713.79 605.56,713.64 607.18,713.49 608.80,713.34 610.42,713.20 612.04,713.05 613.66,712.91 615.27,712.78 616.89,712.64 618.51,712.51 620.13,712.38 621.75,712.25 623.37,712.12 624.99,712.00 626.61,711.88 628.23,711.76 629.85,711.64 631.47,711.52 633.09,711.41 634.71,711.30 636.33,711.19 637.95,711.08 639.57,710.97 641.19,710.87 642.81,710.77 644.42,710.67 646.04,710.57 647.66,710.47 649.28,710.38 650.90,710.29 652.52,710.19 654.14,710.11 655.76,710.02 657.38,709.93 659.00,709.85 660.62,709.77 662.24,709.69 663.86,709.61 665.48,709.53 667.10,709.46 668.72,709.39 670.34,709.32 671.96,709.25 673.58,709.18 675.19,709.11 676.81,709.05 678.43,708.99 680.05,708.93 681.67,708.87 683.29,708.81 684.91,708.76 686.53,708.70 688.15,708.65 689.77,708.60 691.39,708.55 693.01,708.51 694.63,708.46 696.25,708.42 697.87,708.38 699.49,708.34 701.11,708.31 702.73,708.27 704.34,708.24 705.96,708.21 707.58,708.18 709.20,708.15 710.82,708.13 712.44,708.10 714.06,708.08 715.68,708.06 717.30,708.04 718.92,708.03 720.54,708.02 722.16,708.01 723.78,708.00 725.40,707.99 727.02,707.99 728.64,707.98 730.26,707.99 731.88,707.99 733.49,707.99 735.11,708.00 736.73,708.01 738.35,708.02 739.97,708.04 741.59,708.05 743.21,708.07 744.83,708.10 746.45,708.12 748.07,708.15 749.69,708.18 751.31,708.21 752.93,708.25 754.55,708.29 756.17,708.33 757.79,708.37 759.41,708.42 761.02,708.47 762.64,708.52 764.26,708.58 765.88,708.64 767.50,708.70 769.12,708.77 770.74,708.84 772.36,708.91 773.98,708.99 775.60,709.07 777.22,709.16 778.84,709.24 780.46,709.33 782.08,709.43 783.70,709.53 785.32,709.63 786.94,709.73 788.56,709.84 790.17,709.96 791.79,710.07 793.41,710.19 795.03,710.32 796.65,710.45 798.27,710.58 799.89,710.71 801.51,710.85 803.13,711.00 804.75,711.14 806.37,711.29 807.99,711.45 809.61,711.61 811.23,711.77 812.85,711.94 814.47,712.10 816.09,712.28 817.71,712.45 819.33,712.63 820.94,712.82 822.56,713.00 824.18,713.19 825.80,713.38 827.42,713.58 829.04,713.78 830.66,713.98 832.28,714.18 833.90,714.39 835.52,714.60 837.14,714.81 838.76,715.03 840.38,715.24 842.00,715.46 843.62,715.69 845.24,715.91 846.86,716.14 848.48,716.37 850.09,716.60 851.71,716.83 853.33,717.06 854.95,717.30 856.57,717.54 858.19,717.78 859.81,718.02 861.43,718.26 863.05,718.50 864.67,718.75 866.29,719.00 867.91,719.25 869.53,719.50 871.15,719.75 872.77,720.00 874.39,720.25 876.01,720.51 877.62,720.77 879.24,721.02 880.86,721.28 882.48,721.54 884.10,721.80 885.72,722.06 887.34,722.33 888.96,722.59 890.58,722.85 892.20,723.12 893.82,723.38 895.44,723.65 897.06,723.92 898.68,724.19 900.30,724.46 901.92,724.73 903.54,725.00 905.16,725.27 906.77,725.54 908.39,725.81 910.01,726.08 911.63,726.36 913.25,726.63 914.87,726.91 916.49,727.18 918.11,727.46 919.73,727.74 921.35,728.01 922.97,728.29 924.59,728.57 926.21,728.85 927.83,729.12 929.45,729.40 931.07,729.68 932.69,729.96 934.31,730.24 935.92,730.52 937.54,730.80 939.16,731.09 940.78,731.37 942.40,731.65 944.02,731.93 945.64,732.21 947.26,732.50 948.88,732.78 950.50,733.06 952.12,733.34 953.74,733.63 955.36,733.91 956.98,734.20 958.60,734.48 960.22,734.76 961.84,735.05 963.46,735.33 965.08,735.62 966.69,735.90 968.31,736.19 969.93,736.47 971.55,736.76 973.17,737.04 974.79,737.33 976.41,737.61 978.03,737.90 979.65,738.18 981.27,738.47 982.89,738.75 984.51,739.03 986.13,739.32 987.75,739.60 989.37,739.89 990.99,740.17 992.61,740.46 994.23,740.74 995.84,741.03 997.46,741.31 999.08,741.60 1000.70,741.88 1002.32,742.17 1003.94,742.45 1005.56,742.73 1007.18,743.02 1008.80,743.30 1010.42,743.58 1012.04,743.87 1013.66,744.15 1015.28,744.43 1016.90,744.72 1018.52,745.00 1020.14,745.28 1021.76,745.56 1023.38,745.85 1024.99,746.13 1026.61,746.41 1028.23,746.69 1029.85,746.97 1031.47,747.25 1033.09,747.53 1034.71,747.81 1036.33,748.09 1037.95,748.37 1039.57,748.65 1041.19,748.93 1042.81,749.21 1044.43,749.49 1046.05,749.77 1047.67,750.04 1049.29,750.32 1050.91,750.60 1052.53,750.87 1054.14,751.15 1055.76,751.43 1057.38,751.70 1059.00,751.98 1060.62,752.25 1062.24,752.53 1063.86,752.80 1065.48,753.08 1067.10,753.35 1068.72,753.62 1070.34,753.90 1071.96,754.17 1073.58,754.44 1075.20,754.71 1076.82,754.98 1078.44,755.25 1080.06,755.52 1081.67,755.79 1083.29,756.06 1084.91,756.33 1086.53,756.60 1088.15,756.87 1089.77,757.14 1091.39,757.40 1093.01,757.67 1094.63,757.94 1096.25,758.20 1097.87,758.47 1099.49,758.73 1101.11,759.00 1102.73,759.26 1104.35,759.52 1105.97,759.79 1107.59,760.05 1109.21,760.31 1110.83,760.57 1112.44,760.83 1114.06,761.09 1115.68,761.35 1117.30,761.61 1118.92,761.87 1120.54,762.13 1122.16,762.39 1123.78,762.64 1125.40,762.90 1127.02,763.16 1128.64,763.41 1130.26,763.67 1131.88,763.92 1133.50,764.18 1135.12,764.43 1136.74,764.68 1138.36,764.94 1139.97,765.19 1141.59,765.44 1143.21,765.69 1144.83,765.94 1146.45,766.19 1148.07,766.44 1149.69,766.69 1151.31,766.93 1152.93,767.18 1154.55,767.43 1156.17,767.67 1157.79,767.92 1159.41,768.16 1161.03,768.41 1162.65,768.65 1164.27,768.90 1165.89,769.14 1167.51,769.38 1169.12,769.62 1170.74,769.86 1172.36,770.10 1173.98,770.34 1175.60,770.58 1177.22,770.82 1178.84,771.06 1180.46,771.29 1182.08,771.53 1183.70,771.77 1185.32,772.00 1186.94,772.24 1188.56,772.47 1190.18,772.70 1191.80,772.94 1193.42,773.17 1195.04,773.40 1196.66,773.63 1198.28,773.86 1199.89,774.09 1201.51,774.32 1203.13,774.55 1204.75,774.78 1206.37,775.00 1207.99,775.23 1209.61,775.46 1211.23,775.68 1212.85,775.91 1214.47,776.13 1216.09,776.35 1217.71,776.58 1219.33,776.80 1220.95,777.02 1222.57,777.24 1224.19,777.46 1225.81,777.68 1227.42,777.90 1229.04,778.12 1230.66,778.34 1232.28,778.55 1233.90,778.77 1235.52,778.99 1237.14,779.20 1238.76,779.42 1240.38,779.63 1242.00,779.84" />
<polyline fill="none" stroke="#9467bd" stroke-width="1.6" points="76.00,693.17 77.62,693.17 79.24,693.17 80.86,693.17 82.48,693.17 84.10,693.17 85.72,693.17 87.34,693.19 88.96,694.76 90.58,696.83 92.19,699.24 93.81,701.90 95.43,704.73 97.05,707.67 98.67,710.69 100.29,713.74 101.91,716.81 103.53,719.86 105.15,722.89 106.77,725.88 108.39,728.83 110.01,731.73 111.63,734.57 113.25,737.36 114.87,740.08 116.49,742.74 118.11,745.34 119.72,747.87 121.34,750.35 122.96,752.76 124.58,755.12 126.20,757.41 127.82,759.65 129.44,761.83 131.06,763.96 132.68,766.03 134.30,768.06 135.92,770.02 137.54,771.94 139.16,773.81 140.78,775.63 142.40,777.40 144.02,779.12 145.64,780.79 147.26,782.42 148.88,784.01 150.49,785.55 152.11,787.04 153.73,788.49 155.35,789.90 156.97,791.26 158.59,792.59 160.21,793.87 161.83,795.11 163.45,796.31 165.07,797.47 166.69,798.59 168.31,799.67 169.93,800.72 171.55,801.72 173.17,802.69 174.79,803.62 176.41,804.52 178.03,805.37 179.64,806.19 181.26,806.97 182.88,807.71 184.50,808.41 186.12,809.07 187.74,809.70 189.36,810.28 190.98,810.82 192.60,811.33 194.22,811.79 195.84,812.21 197.46,812.59 199.08,812.93 200.70,813.23 202.32,813.49 203.94,813.77 205.56,814.30 207.18,815.09 208.79,816.10 210.41,817.33 212.03,818.77 213.65,820.39 215.27,822.20 216.89,824.18 218.51,826.32 220.13,828.61 221.75,831.06 223.37,833.64 224.99,836.35 226.61,839.19 228.23,842.14 229.85,845.21 231.47,848.37 233.09,851.62 234.71,854.80 236.32,857.78 237.94,860.59 239.56,863.23 241.18,865.70 242.80,868.01 244.42,870.13 246.04,872.06 247.66,873.83 249.28,875.45 250.90,876.95 252.52,878.35 254.14,879.68 255.76,880.91 257.38,882.05 259.00,882.83 260.62,882.76 262.24,881.83 263.86,880.02 265.48,877.34 267.09,873.83 268.71,869.49 270.33,864.39 271.95,858.57 273.57,852.63 275.19,847.23 276.81,842.28 278.43,837.74 280.05,833.56 281.67,829.71 283.29,826.14 284.91,822.85 286.53,819.79 288.15,816.96 289.77,814.32 291.39,811.87 293.01,809.59 294.62,807.46 296.24,805.47 297.86,803.61 299.48,801.87 301.10,800.23 302.72,798.70 304.34,797.26 305.96,795.90 307.58,794.62 309.20,793.41 310.82,792.26 312.44,791.18 314.06,790.15 315.68,789.17 317.30,788.24 318.92,787.36 320.54,786.51 322.16,785.70 323.77,784.93 325.39,784.19 327.01,783.48 328.63,782.79 330.25,782.13 331.87,781.50 333.49,780.89 335.11,780.29 336.73,779.72 338.35,779.17 339.97,778.63 341.59,778.10 343.21,777.59 344.83,777.10 346.45,776.61 348.07,776.14 349.69,775.67 351.31,775.22 352.93,774.77 354.54,774.33 356.16,773.90 357.78,773.48 359.40,773.06 361.02,772.65 362.64,772.24 364.26,771.83 365.88,771.43 367.50,771.03 369.12,770.64 370.74,770.25 372.36,769.86 373.98,769.47 375.60,769.09 377.22,768.70 378.84,768.32 380.46,767.94 382.07,767.55 383.69,767.17 385.31,766.79 386.93,766.41 388.55,766.03 390.17,765.65 391.79,765.27 393.41,764.89 395.03,764.50 396.65,764.12 398.27,763.74 399.89,763.35 401.51,762.97 403.13,762.59 404.75,762.20 406.37,761.81 407.99,761.43 409.61,761.04 411.23,760.65 412.84,760.26 414.46,759.87 416.08,759.48 417.70,759.09 419.32,758.70 420.94,758.31 422.56,757.91 424.18,757.52 425.80,757.13 427.42,756.73 429.04,756.34 430.66,755.95 432.28,755.55 433.90,755.16 435.52,754.76 437.14,754.37 438.76,753.97 440.38,753.58 441.99,753.18 443.61,752.79 445.23,752.39 446.85,752.00 448.47,751.61 450.09,751.22 451.71,750.82 453.33,750.43 454.95,750.04 456.57,749.65 458.19,749.26 459.81,748.88 461.43,748.49 463.05,748.10 464.67,747.72 466.29,747.34 467.91,746.95 469.52,746.57 471.14,746.19 472.76,745.82 474.38,745.44 476.00,745.07 477.62,744.70 479.24,744.33 480.86,743.96 482.48,743.59 484.10,743.23 485.72,742.87 487.34,742.51 488.96,742.15 490.58,741.80 492.20,741.44 493.82,741.10 495.44,740.75 497.06,740.41 498.68,740.07 500.29,739.74 501.91,739.41 503.53,739.08 505.15,738.76 506.77,738.44 508.39,738.12 510.01,737.82 511.63,737.51 513.25,737.22 514.87,736.93 516.49,736.64 518.11,736.36 519.73,736.09 521.35,735.82 522.97,735.56 524.59,735.30 526.21,735.05 527.83,734.81 529.44,734.56 531.06,734.32 532.68,734.08 534.30,733.83 535.92,733.57 537.54,733.31 539.16,733.04 540.78,732.76 542.40,732.47 544.02,732.17 545.64,731.86 547.26,731.53 548.88,731.20 550.50,730.86 552.12,730.51 553.74,730.16 555.36,729.80 556.98,729.44 558.59,729.07 560.21,728.71 561.83,728.35 563.45,727.99 565.07,727.63 566.69,727.28 568.31,726.93 569.93,726.58 571.55,726.24 573.17,725.90 574.79,725.58 576.41,725.25 578.03,724.93 579.65,724.62 581.27,724.32 582.89,724.02 584.51,723.72 586.12,723.44 587.74,723.16 589.36,722.88 590.98,722.61 592.60,722.35 594.22,722.09 595.84,721.84 597.46,721.60 599.08,721.36 600.70,721.13 602.32,720.90 603.94,720.67 605.56,720.46 607.18,720.24 608.80,720.04 610.42,719.83 612.04,719.64 613.66,719.44 615.27,719.25 616.89,719.07 618.51,718.89 620.13,718.71 621.75,718.54 623.37,718.37 624.99,718.21 626.61,718.05 628.23,717.90 629.85,717.74 631.47,717.60 633.09,717.45 634.71,717.31 636.33,717.17 637.95,717.04 639.57,716.91 641.19,716.78 642.81,716.66 644.42,716.54 646.04,716.42 647.66,716.30 649.28,716.19 650.90,716.08 652.52,715.98 654.14,715.87 655.76,715.77 657.38,715.68 659.00,715.58 660.62,715.49 662.24,715.40 663.86,715.31 665.48,715.23 667.10,715.15 668.72,715.07 670.34,714.99 671.96,714.92 673.58,714.85 675.19,714.78 676.81,714.71 678.43,714.65 680.05,714.59 681.67,714.53 683.29,714.47 684.91,714.42 686.53,714.36 688.15,714.31 689.77,714.27 691.39,714.22 693.01,714.18 694.63,714.14 696.25,714.10 697.87,714.06 699.49,714.03 701.11,714.00 702.73,713.97 704.34,713.94 705.96,713.92 707.58,713.90 709.20,713.88 710.82,713.86 712.44,713.84 714.06,713.83 715.68,713.82 717.30,713.81 718.92,713.81 720.54,713.81 722.16,713.80 723.78,713.81 725.40,713.81 727.02,713.82 728.64,713.83 730.26,713.84 731.88,713.85 733.49,713.87 735.11,713.88 736.73,713.91 738.35,713.93 739.97,713.96 741.59,713.98 743.21,714.02 744.83,714.05 746.45,714.09 748.07,714.13 749.69,714.17 751.31,714.21 752.93,714.26 754.55,714.31 756.17,714.36 757.79,714.41 759.41,714.47 761.02,714.53 762.64,714.59 764.26,714.66 765.88,714.73 767.50,714.80 769.12,714.87 770.74,714.95 772.36,715.03 773.98,715.11 775.60,715.20 777.22,715.28 778.84,715.37 780.46,715.47 782.08,715.56 783.70,715.66 785.32,715.76 786.94,715.86 788.56,715.97 790.17,716.08 791.79,716.19 793.41,716.30 795.03,716.42 796.65,716.54 798.27,716.66 799.89,716.79 801.51,716.92 803.13,717.05 804.75,717.18 806.37,717.31 807.99,717.45 809.61,717.59 811.23,717.73 812.85,717.88 814.47,718.03 816.09,718.18 817.71,718.33 819.33,718.48 820.94,718.64 822.56,718.80 824.18,718.96 825.80,719.12 827.42,719.29 829.04,719.46 830.66,719.63 832.28,719.80 833.90,719.98 835.52,720.15 837.14,720.33 838.76,720.51 840.38,720.70 842.00,720.88 843.62,721.07 845.24,721.26 846.86,721.45 848.48,721.64 850.09,721.83 851.71,722.03 853.33,722.23 854.95,722.43 856.57,722.63 858.19,722.83 859.81,723.04 861.43,723.24 863.05,723.45 864.67,723.66 866.29,723.87 867.91,724.08 869.53,724.29 871.15,724.51 872.77,724.73 874.39,724.94 876.01,725.16 877.62,725.38 879.24,725.61 880.86,725.83 882.48,726.05 884.10,726.28 885.72,726.51 887.34,726.74 888.96,726.96 890.58,727.19 892.20,727.43 893.82,727.66 895.44,727.89 897.06,728.13 898.68,728.36 900.30,728.60 901.92,728.84 903.54,729.08 905.16,729.32 906.77,729.56 908.39,729.80 910.01,730.04 911.63,730.29 913.25,730.53 914.87,730.78 916.49,731.02 918.11,731.27 919.73,731.52 921.35,731.76 922.97,732.01 924.59,732.26 926.21,732.51 927.83,732.76 929.45,733.02 931.07,733.27 932.69,733.52 934.31,733.78 935.92,734.03 937.54,734.28 939.16,734.54 940.78,734.80 942.40,735.05 944.02,735.31 945.64,735.57 947.26,735.82 948.88,736.08 950.50,736.34 952.12,736.60 953.74,736.86 955.36,737.12 956.98,737.38 958.60,737.64 960.22,737.90 961.84,738.17 963.46,738.43 965.08,738.69 966.69,738.95 968.31,739.22 969.93,739.48 971.55,739.74 973.17,740.01 974.79,740.27 976.41,740.53 978.03,740.80 979.65,741.06 981.27,741.33 982.89,741.59 984.51,741.86 986.13,742.12 987.75,742.39 989.37,742.65 990.99,742.92 992.61,743.19 994.23,743.45 995.84,743.72 997.46,743.98 999.08,744.25 1000.70,744.52 1002.32,744.78 1003.94,745.05 1005.56,745.32 1007.18,745.58 1008.80,745.85 1010.42,746.11 1012.04,746.38 1013.66,746.65 1015.28,746.91 1016.90,747.18 1018.52,747.45 1020.14,747.71 1021.76,747.98 1023.38,748.24 1024.99,748.51 1026.61,748.78 1028.23,749.04 1029.85,749.31 1031.47,749.57 1033.09,749.84 1034.71,750.10 1036.33,750.37 1037.95,750.63 1039.57,750.90 1041.19,751.16 1042.81,751.43 1044.43,751.69 1046.05,751.96 1047.67,752.22 1049.29,752.48 1050.91,752.75 1052.53,753.01 1054.14,753.27 1055.76,753.54 1057.38,753.80 1059.00,754.06 1060.62,754.32 1062.24,754.58 1063.86,754.85 1065.48,755.11 1067.10,755.37 1068.72,755.63 1070.34,755.89 1071.96,756.15 1073.58,756.41 1075.20,756.67 1076.82,756.93 1078.44,757.19 1080.06,757.45 1081.67,757.70 1083.29,757.96 1084.91,758.22 1086.53,758.48 1088.15,758.73 1089.77,758.99 1091.39,759.24 1093.01,759.50 1094.63,759.76 1096.25,760.01 1097.87,760.27 1099.49,760.52 1101.11,760.77 1102.73,761.03 1104.35,761.28 1105.97,761.53 1107.59,761.78 1109.21,762.04 1110.83,762.29 1112.44,762.54 1114.06,762.79 1115.68,763.04 1117.30,763.29 1118.92,763.54 1120.54,763.78 1122.16,764.03 1123.78,764.28 1125.40,764.53 1127.02,764.77 1128.64,765.02 1130.26,765.27 1131.88,765.51 1133.50,765.76 1135.12,766.00 1136.74,766.24 1138.36,766.49 1139.97,766.73 1141.59,766.97 1143.21,767.22 1144.83,767.46 1146.45,767.70 1148.07,767.94 1149.69,768.18 1151.31,768.42 1152.93,768.66 1154.55,768.89 1156.17,769.13 1157.79,769.37 1159.41,769.61 1161.03,769.84 1162.65,770.08 1164.27,770.31 1165.89,770.55 1167.51,770.78 1169.12,771.02 1170.74,771.25 1172.36,771.48 1173.98,771.71 1175.60,771.94 1177.22,772.18 1178.84,772.41 1180.46,772.64 1182.08,772.86 1183.70,773.09 1185.32,773.32 1186.94,773.55 1188.56,773.78 1190.18,774.00 1191.80,774.23 1193.42,774.45 1195.04,774.68 1196.66,774.90 1198.28,775.12 1199.89,775.35 1201.51,775.57 1203.13,775.79 1204.75,776.01 1206.37,776.23 1207.99,776.45 1209.61,776.67 1211.23,776.89 1212.85,777.11 1214.47,777.33 1216.09,777.54 1217.71,777.76 1219.33,777.98 1220.95,778.19 1222.57,778.41 1224.19,778.62 1225.81,778.83 1227.42,779.05 1229.04,779.26 1230.66,779.47 1232.28,779.68 1233.90,779.89 1235.52,780.10 1237.14,780.31 1238.76,780.52 1240.38,780.73 1242.00,780.94" />
<text x="1180" y="920" font-size="10" font-family="Arial">time, min</text>
<text x="28" y="920" font-size="10" font-family="Arial">delta mmol/L</text>
<line x1="1080" y1="666" x2="1098" y2="666" stroke="#2ca02c" stroke-width="2"/>
<text x="1104" y="670" font-size="11" font-family="Arial">delta tms=0</text>
<line x1="1080" y1="680" x2="1098" y2="680" stroke="#9467bd" stroke-width="2"/>
<text x="1104" y="684" font-size="11" font-family="Arial">delta tms=30</text>
</svg>