<svg xmlns="http://www.w3.org/2000/svg" width="1280" height="980">
<rect width="100%" height="100%" fill="#fbfdff"/>
<text x="20" y="28" font-size="20" font-family="Arial">Solver comparison: old RK4(C) vs new LSODA(C++) - DM</text>
<rect x="20" y="50" width="1240" height="280" fill="white" stroke="#d0d7de"/>
<text x="28" y="68" font-size="14" font-family="Arial">Trajectory (tms=0)</text>
<line x1="76" y1="298" x2="1242" y2="298" stroke="#555"/>
<line x1="76" y1="78" x2="76" y2="298" stroke="#555"/>
<line x1="76" y1="78.00" x2="1242" y2="78.00" stroke="#f0f0f0"/>
<text x="24" y="82.00" font-size="10" font-family="Arial">19.86</text>
<line x1="76" y1="133.00" x2="1242" y2="133.00" stroke="#f0f0f0"/>
<text x="24" y="137.00" font-size="10" font-family="Arial">16.72</text>
<line x1="76" y1="188.00" x2="1242" y2="188.00" stroke="#f0f0f0"/>
<text x="24" y="192.00" font-size="10" font-family="Arial">13.58</text>
<line x1="76" y1="243.00" x2="1242" y2="243.00" stroke="#f0f0f0"/>
<text x="24" y="247.00" font-size="10" font-family="Arial">10.44</text>
<line x1="76" y1="298.00" x2="1242" y2="298.00" stroke="#f0f0f0"/>
<text x="24" y="302.00" font-size="10" font-family="Arial">7.30</text>
<line x1="76.00" y1="78" x2="76.00" y2="298" stroke="#f5f5f5"/>
<text x="66.00" y="314" font-size="10" font-family="Arial">0</text>
<line x1="309.20" y1="78" x2="309.20" y2="298" stroke="#f5f5f5"/>
<text x="299.20" y="314" font-size="10" font-family="Arial">144</text>
<line x1="542.40" y1="78" x2="542.40" y2="298" stroke="#f5f5f5"/>
<text x="532.40" y="314" font-size="10" font-family="Arial">288</text>
<line x1="775.60" y1="78" x2="775.60" y2="298" stroke="#f5f5f5"/>
<text x="765.60" y="314" font-size="10" font-family="Arial">432</text>
<line x1="1008.80" y1="78" x2="1008.80" y2="298" stroke="#f5f5f5"/>
<text x="998.80" y="314" font-size="10" font-family="Arial">576</text>
<line x1="1242.00" y1="78" x2="1242.00" y2="298" stroke="#f5f5f5"/>
<text x="1232.00" y="314" font-size="10" font-family="Arial">720</text>
<polyline fill="none" stroke="#1f77b4" stroke-width="1.6" points="76.00,221.34 77.62,217.85 79.24,214.84 80.86,212.25 82.48,210.02 84.10,208.09 85.72,206.44 87.34,205.01 88.96,203.79 90.58,202.74 92.19,201.85 93.81,201.08 95.43,200.43 97.05,199.87 98.67,199.40 100.29,199.01 101.91,198.68 103.53,198.40 105.15,198.17 106.77,197.99 108.39,197.84 110.01,197.72 111.63,197.63 113.25,197.57 114.87,197.52 116.49,197.49 118.11,197.48 119.72,197.48 121.34,197.50 122.96,197.53 124.58,197.57 126.20,197.62 127.82,197.69 129.44,197.76 131.06,197.86 132.68,197.96 134.30,198.09 135.92,198.23 137.54,198.39 139.16,198.58 140.78,198.79 142.40,199.02 144.02,199.28 145.64,199.57 147.26,199.89 148.88,200.24 150.49,200.62 152.11,201.03 153.73,201.48 155.35,201.96 156.97,202.48 158.59,203.03 160.21,203.61 161.83,204.23 163.45,204.89 165.07,205.58 166.69,206.31 168.31,207.07 169.93,207.86 171.55,208.69 173.17,209.55 174.79,210.46 176.41,211.39 178.03,212.35 179.64,213.33 181.26,214.35 182.88,215.39 184.50,216.47 186.12,217.56 187.74,218.68 189.36,219.80 190.98,220.91 192.60,222.00 194.22,223.00 195.84,223.84 197.46,224.42 199.08,224.63 200.70,224.39 202.32,223.63 203.94,222.31 205.56,220.42 207.18,217.97 208.79,214.96 210.41,211.45 212.03,207.47 213.65,203.07 215.27,198.31 216.89,193.26 218.51,187.96 220.13,182.51 221.75,176.95 223.37,171.37 224.99,165.81 226.61,160.35 228.23,155.02 229.85,149.86 231.47,144.92 233.09,140.21 234.71,135.76 236.32,131.57 237.94,127.67 239.56,124.04 241.18,120.69 242.80,117.62 244.42,114.83 246.04,112.30 247.66,110.04 249.28,108.03 250.90,106.27 252.52,104.74 254.14,103.44 255.76,102.35 257.38,101.48 259.00,100.79 260.62,100.30 262.24,99.98 263.86,99.84 265.48,99.85 267.09,100.01 268.71,100.31 270.33,100.75 271.95,101.32 273.57,102.00 275.19,102.79 276.81,103.68 278.43,104.68 280.05,105.76 281.67,106.92 283.29,108.17 284.91,109.48 286.53,110.86 288.15,112.31 289.77,113.81 291.39,115.36 293.01,116.96 294.62,118.60 296.24,120.28 297.86,121.99 299.48,123.74 301.10,125.51 302.72,127.30 304.34,129.12 305.96,130.96 307.58,132.81 309.20,134.67 310.82,136.54 312.44,138.42 314.06,140.31 315.68,142.20 317.30,144.08 318.92,145.97 320.54,147.86 322.16,149.74 323.77,151.62 325.39,153.48 327.01,155.34 328.63,157.19 330.25,159.03 331.87,160.86 333.49,162.67 335.11,164.47 336.73,166.26 338.35,168.03 339.97,169.78 341.59,171.51 343.21,173.23 344.83,174.93 346.45,176.61 348.07,178.27 349.69,179.91 351.31,181.53 352.93,183.13 354.54,184.71 356.16,186.27 357.78,187.80 359.40,189.32 361.02,190.81 362.64,192.28 364.26,193.73 365.88,195.16 367.50,196.57 369.12,197.95 370.74,199.31 372.36,200.65 373.98,201.97 375.60,203.27 377.22,204.54 378.84,205.79 380.46,207.02 382.07,208.23 383.69,209.42 385.31,210.58 386.93,211.73 388.55,212.85 390.17,213.95 391.79,215.03 393.41,216.09 395.03,217.13 396.65,218.14 398.27,219.14 399.89,220.11 401.51,221.06 403.13,222.00 404.75,222.91 406.37,223.80 407.99,224.67 409.61,225.52 411.23,226.35 412.84,227.16 414.46,227.95 416.08,228.72 417.70,229.47 419.32,230.20 420.94,230.91 422.56,231.59 424.18,232.26 425.80,232.90 427.42,233.53 429.04,234.13 430.66,234.71 432.28,235.27 433.90,235.80 435.52,236.32 437.14,236.81 438.76,237.27 440.38,237.71 441.99,238.13 443.61,238.52 445.23,238.89 446.85,239.23 448.47,239.55 450.09,239.83 451.71,240.09 453.33,240.31 454.95,240.51 456.57,240.67 458.19,240.79 459.81,240.88 461.43,240.93 463.05,240.94 464.67,240.91 466.29,240.83 467.91,240.70 469.52,240.52 471.14,240.29 472.76,240.00 474.38,239.65 476.00,239.24 477.62,238.76 479.24,238.22 480.86,237.61 482.48,236.92 484.10,236.17 485.72,235.36 487.34,234.48 488.96,233.54 490.58,232.55 492.20,231.52 493.82,230.45 495.44,229.35 497.06,228.23 498.68,227.10 500.29,225.97 501.91,224.85 503.53,223.74 505.15,222.66 506.77,221.60 508.39,220.57 510.01,219.59 511.63,218.64 513.25,217.75 514.87,216.90 516.49,216.11 518.11,215.37 519.73,214.68 521.35,214.05 522.97,213.48 524.59,212.97 526.21,212.51 527.83,212.10 529.44,211.75 531.06,211.46 532.68,211.22 534.30,211.03 535.92,210.89 537.54,210.80 539.16,210.76 540.78,210.77 542.40,210.81 544.02,210.91 545.64,211.04 547.26,211.21 548.88,211.42 550.50,211.66 552.12,211.94 553.74,212.26 555.36,212.60 556.98,212.97 558.59,213.37 560.21,213.80 561.83,214.25 563.45,214.72 565.07,215.21 566.69,215.73 568.31,216.26 569.93,216.81 571.55,217.38 573.17,217.96 574.79,218.56 576.41,219.17 578.03,219.79 579.65,220.42 581.27,221.06 582.89,221.71 584.51,222.37 586.12,223.04 587.74,223.71 589.36,224.38 590.98,225.06 592.60,225.74 594.22,226.43 595.84,227.12 597.46,227.81 599.08,228.50 600.70,229.19 602.32,229.88 603.94,230.57 605.56,231.26 607.18,231.95 608.80,232.63 610.42,233.32 612.04,234.00 613.66,234.67 615.27,235.35 616.89,236.01 618.51,236.68 620.13,237.34 621.75,237.99 623.37,238.64 624.99,239.29 626.61,239.93 628.23,240.57 629.85,241.20 631.47,241.82 633.09,242.44 634.71,243.05 636.33,243.66 637.95,244.27 639.57,244.87 641.19,245.46 642.81,246.05 644.42,246.63 646.04,247.21 647.66,247.79 649.28,248.35 650.90,248.92 652.52,249.47 654.14,250.02 655.76,250.57 657.38,251.11 659.00,251.64 660.62,252.17 662.24,252.69 663.86,253.21 665.48,253.72 667.10,254.23 668.72,254.73 670.34,255.22 671.96,255.71 673.58,256.20 675.19,256.67 676.81,257.15 678.43,257.61 680.05,258.08 681.67,258.53 683.29,258.98 684.91,259.43 686.53,259.87 688.15,260.30 689.77,260.73 691.39,261.15 693.01,261.57 694.63,261.98 696.25,262.39 697.87,262.79 699.49,263.19 701.11,263.58 702.73,263.97 704.34,264.35 705.96,264.72 707.58,265.09 709.20,265.46 710.82,265.82 712.44,266.18 714.06,266.53 715.68,266.87 717.30,267.21 718.92,267.55 720.54,267.88 722.16,268.21 723.78,268.53 725.40,268.85 727.02,269.16 728.64,269.47 730.26,269.77 731.88,270.07 733.49,270.37 735.11,270.66 736.73,270.94 738.35,271.23 739.97,271.50 741.59,271.78 743.21,272.04 744.83,272.31 746.45,272.57 748.07,272.82 749.69,273.08 751.31,273.32 752.93,273.57 754.55,273.81 756.17,274.04 757.79,274.28 759.41,274.50 761.02,274.73 762.64,274.95 764.26,275.17 765.88,275.38 767.50,275.59 769.12,275.79 770.74,275.99 772.36,276.19 773.98,276.39 775.60,276.58 777.22,276.77 778.84,276.95 780.46,277.13 782.08,277.31 783.70,277.48 785.32,277.65 786.94,277.82 788.56,277.98 790.17,278.14 791.79,278.30 793.41,278.45 795.03,278.61 796.65,278.75 798.27,278.90 799.89,279.04 801.51,279.18 803.13,279.31 804.75,279.45 806.37,279.58 807.99,279.70 809.61,279.83 811.23,279.95 812.85,280.06 814.47,280.18 816.09,280.29 817.71,280.40 819.33,280.51 820.94,280.61 822.56,280.71 824.18,280.81 825.80,280.91 827.42,281.00 829.04,281.09 830.66,281.18 832.28,281.26 833.90,281.35 835.52,281.43 837.14,281.50 838.76,281.58 840.38,281.65 842.00,281.72 843.62,281.79 845.24,281.86 846.86,281.92 848.48,281.98 850.09,282.04 851.71,282.10 853.33,282.15 854.95,282.20 856.57,282.25 858.19,282.30 859.81,282.35 861.43,282.39 863.05,282.43 864.67,282.47 866.29,282.51 867.91,282.54 869.53,282.57 871.15,282.60 872.77,282.63 874.39,282.66 876.01,282.68 877.62,282.71 879.24,282.73 880.86,282.74 882.48,282.76 884.10,282.78 885.72,282.79 887.34,282.80 888.96,282.81 890.58,282.82 892.20,282.82 893.82,282.83 895.44,282.83 897.06,282.83 898.68,282.83 900.30,282.82 901.92,282.82 903.54,282.81 905.16,282.80 906.77,282.79 908.39,282.78 910.01,282.77 911.63,282.75 913.25,282.74 914.87,282.72 916.49,282.70 918.11,282.68 919.73,282.65 921.35,282.63 922.97,282.60 924.59,282.57 926.21,282.55 927.83,282.52 929.45,282.48 931.07,282.45 932.69,282.41 934.31,282.38 935.92,282.34 937.54,282.30 939.16,282.26 940.78,282.22 942.40,282.18 944.02,282.13 945.64,282.09 947.26,282.04 948.88,281.99 950.50,281.94 952.12,281.89 953.74,281.84 955.36,281.78 956.98,281.73 958.60,281.67 960.22,281.61 961.84,281.55 963.46,281.50 965.08,281.43 966.69,281.37 968.31,281.31 969.93,281.24 971.55,281.18 973.17,281.11 974.79,281.04 976.41,280.97 978.03,280.90 979.65,280.83 981.27,280.76 982.89,280.69 984.51,280.61 986.13,280.54 987.75,280.46 989.37,280.38 990.99,280.30 992.61,280.22 994.23,280.14 995.84,280.06 997.46,279.98 999.08,279.90 1000.70,279.81 1002.32,279.73 1003.94,279.64 1005.56,279.55 1007.18,279.46 1008.80,279.37 1010.42,279.28 1012.04,279.19 1013.66,279.10 1015.28,279.01 1016.90,278.91 1018.52,278.82 1020.14,278.72 1021.76,278.63 1023.38,278.53 1024.99,278.43 1026.61,278.33 1028.23,278.23 1029.85,278.13 1031.47,278.03 1033.09,277.93 1034.71,277.83 1036.33,277.72 1037.95,277.62 1039.57,277.52 1041.19,277.41 1042.81,277.30 1044.43,277.20 1046.05,277.09 1047.67,276.98 1049.29,276.87 1050.91,276.76 1052.53,276.65 1054.14,276.54 1055.76,276.43 1057.38,276.31 1059.00,276.20 1060.62,276.09 1062.24,275.97 1063.86,275.86 1065.48,275.74 1067.10,275.62 1068.72,275.51 1070.34,275.39 1071.96,275.27 1073.58,275.15 1075.20,275.03 1076.82,274.91 1078.44,274.79 1080.06,274.67 1081.67,274.55 1083.29,274.42 1084.91,274.30 1086.53,274.18 1088.15,274.05 1089.77,273.93 1091.39,273.80 1093.01,273.68 1094.63,273.55 1096.25,273.42 1097.87,273.30 1099.49,273.17 1101.11,273.04 1102.73,272.91 1104.35,272.78 1105.97,272.65 1107.59,272.52 1109.21,272.39 1110.83,272.26 1112.44,272.13 1114.06,272.00 1115.68,271.87 1117.30,271.73 1118.92,271.60 1120.54,271.47 1122.16,271.33 1123.78,271.20 1125.40,271.06 1127.02,270.93 1128.64,270.79 1130.26,270.65 1131.88,270.52 1133.50,270.38 1135.12,270.24 1136.74,270.11 1138.36,269.97 1139.97,269.83 1141.59,269.69 1143.21,269.55 1144.83,269.41 1146.45,269.27 1148.07,269.13 1149.69,268.99 1151.31,268.85 1152.93,268.71 1154.55,268.57 1156.17,268.43 1157.79,268.29 1159.41,268.14 1161.03,268.00 1162.65,267.86 1164.27,267.72 1165.89,267.57 1167.51,267.43 1169.12,267.28 1170.74,267.14 1172.36,267.00 1173.98,266.85 1175.60,266.71 1177.22,266.56 1178.84,266.42 1180.46,266.27 1182.08,266.12 1183.70,265.98 1185.32,265.83 1186.94,265.68 1188.56,265.54 1190.18,265.39 1191.80,265.24 1193.42,265.10 1195.04,264.95 1196.66,264.80 1198.28,264.65 1199.89,264.50 1201.51,264.35 1203.13,264.21 1204.75,264.06 1206.37,263.91 1207.99,263.76 1209.61,263.61 1211.23,263.46 1212.85,263.31 1214.47,263.16 1216.09,263.01 1217.71,262.86 1219.33,262.71 1220.95,262.56 1222.57,262.41 1224.19,262.26 1225.81,262.11 1227.42,261.95 1229.04,261.80 1230.66,261.65 1232.28,261.50 1233.90,261.35 1235.52,261.20 1237.14,261.05 1238.76,260.89 1240.38,260.74 1242.00,260.59" />
<polyline fill="none" stroke="#d62728" stroke-width="1.6" points="76.00,221.34 77.62,217.85 79.24,214.84 80.86,212.25 82.48,210.02 84.10,208.09 85.72,206.44 87.34,205.01 88.96,203.79 90.58,202.74 92.19,201.85 93.81,201.08 95.43,200.43 97.05,199.87 98.67,199.40 100.29,199.01 101.91,198.68 103.53,198.40 105.15,198.17 106.77,197.99 108.39,197.84 110.01,197.72 111.63,197.63 113.25,197.57 114.87,197.52 116.49,197.49 118.11,197.48 119.72,197.48 121.34,197.50 122.96,197.53 124.58,197.57 126.20,197.62 127.82,197.69 129.44,197.76 131.06,197.86 132.68,197.96 134.30,198.09 135.92,198.23 137.54,198.39 139.16,198.58 140.78,198.79 142.40,199.02 144.02,199.28 145.64,199.57 147.26,199.89 148.88,200.24 150.49,200.62 152.11,201.03 153.73,201.48 155.35,201.96 156.97,202.48 158.59,203.03 160.21,203.61 161.83,204.23 163.45,204.89 165.07,205.58 166.69,206.31 168.31,207.07 169.93,207.86 171.55,208.69 173.17,209.55 174.79,210.46 176.41,211.39 178.03,212.35 179.64,213.33 181.26,214.34 182.88,215.38 184.50,216.45 186.12,217.54 187.74,218.65 189.36,219.76 190.98,220.87 192.60,221.93 194.22,222.91 195.84,223.71 197.46,224.22 199.08,224.36 200.70,224.02 202.32,223.16 203.94,221.74 205.56,219.75 207.18,217.19 208.79,214.08 210.41,210.44 212.03,206.33 213.65,201.79 215.27,196.87 216.89,191.64 218.51,186.16 220.13,180.49 221.75,174.71 223.37,168.88 224.99,163.07 226.61,157.35 228.23,151.75 229.85,146.33 231.47,141.12 233.09,136.16 234.71,131.46 236.32,127.03 237.94,122.90 239.56,119.06 241.18,115.51 242.80,112.25 244.42,109.29 246.04,106.60 247.66,104.20 249.28,102.06 250.90,100.17 252.52,98.54 254.14,97.14 255.76,95.97 257.38,95.02 259.00,94.28 260.62,93.73 262.24,93.37 263.86,93.19 265.48,93.17 267.09,93.31 268.71,93.61 270.33,94.04 271.95,94.60 273.57,95.29 275.19,96.09 276.81,97.00 278.43,98.01 280.05,99.12 281.67,100.32 283.29,101.59 284.91,102.95 286.53,104.37 288.15,105.85 289.77,107.40 291.39,109.00 293.01,110.65 294.62,112.34 296.24,114.06 297.86,115.83 299.48,117.62 301.10,119.44 302.72,121.29 304.34,123.16 305.96,125.05 307.58,126.95 309.20,128.88 310.82,130.81 312.44,132.76 314.06,134.71 315.68,136.67 317.30,138.63 318.92,140.59 320.54,142.55 322.16,144.50 323.77,146.44 325.39,148.38 327.01,150.31 328.63,152.23 330.25,154.14 331.87,156.03 333.49,157.91 335.11,159.78 336.73,161.63 338.35,163.47 339.97,165.28 341.59,167.08 343.21,168.87 344.83,170.63 346.45,172.37 348.07,174.10 349.69,175.80 351.31,177.48 352.93,179.14 354.54,180.78 356.16,182.40 357.78,183.99 359.40,185.57 361.02,187.12 362.64,188.65 364.26,190.15 365.88,191.64 367.50,193.10 369.12,194.54 370.74,195.95 372.36,197.34 373.98,198.71 375.60,200.06 377.22,201.39 378.84,202.69 380.46,203.97 382.07,205.22 383.69,206.46 385.31,207.67 386.93,208.86 388.55,210.02 390.17,211.17 391.79,212.29 393.41,213.39 395.03,214.47 396.65,215.53 398.27,216.57 399.89,217.58 401.51,218.58 403.13,219.55 404.75,220.50 406.37,221.43 407.99,222.34 409.61,223.22 411.23,224.09 412.84,224.94 414.46,225.76 416.08,226.57 417.70,227.35 419.32,228.11 420.94,228.85 422.56,229.57 424.18,230.27 425.80,230.95 427.42,231.60 429.04,232.23 430.66,232.85 432.28,233.43 433.90,234.00 435.52,234.54 437.14,235.06 438.76,235.56 440.38,236.03 441.99,236.48 443.61,236.90 445.23,237.30 446.85,237.67 448.47,238.01 450.09,238.32 451.71,238.60 453.33,238.86 454.95,239.08 456.57,239.27 458.19,239.42 459.81,239.54 461.43,239.62 463.05,239.65 464.67,239.65 466.29,239.60 467.91,239.51 469.52,239.36 471.14,239.16 472.76,238.91 474.38,238.59 476.00,238.22 477.62,237.78 479.24,237.27 480.86,236.69 482.48,236.05 484.10,235.34 485.72,234.56 487.34,233.71 488.96,232.81 490.58,231.85 492.20,230.84 493.82,229.79 495.44,228.71 497.06,227.61 498.68,226.49 500.29,225.37 501.91,224.25 503.53,223.14 505.15,222.05 506.77,220.99 508.39,219.95 510.01,218.96 511.63,218.00 513.25,217.09 514.87,216.23 516.49,215.42 518.11,214.67 519.73,213.97 521.35,213.32 522.97,212.73 524.59,212.19 526.21,211.72 527.83,211.30 529.44,210.93 531.06,210.62 532.68,210.36 534.30,210.16 535.92,210.00 537.54,209.90 539.16,209.84 540.78,209.83 542.40,209.87 544.02,209.95 545.64,210.07 547.26,210.23 548.88,210.43 550.50,210.66 552.12,210.93 553.74,211.24 555.36,211.57 556.98,211.94 558.59,212.33 560.21,212.75 561.83,213.19 563.45,213.66 565.07,214.15 566.69,214.66 568.31,215.19 569.93,215.74 571.55,216.31 573.17,216.89 574.79,217.48 576.41,218.09 578.03,218.71 579.65,219.35 581.27,219.99 582.89,220.64 584.51,221.30 586.12,221.96 587.74,222.63 589.36,223.31 590.98,223.99 592.60,224.68 594.22,225.37 595.84,226.06 597.46,226.75 599.08,227.45 600.70,228.14 602.32,228.84 603.94,229.54 605.56,230.23 607.18,230.92 608.80,231.61 610.42,232.30 612.04,232.98 613.66,233.67 615.27,234.34 616.89,235.02 618.51,235.69 620.13,236.36 621.75,237.02 623.37,237.67 624.99,238.32 626.61,238.97 628.23,239.61 629.85,240.25 631.47,240.88 633.09,241.50 634.71,242.12 636.33,242.73 637.95,243.34 639.57,243.95 641.19,244.54 642.81,245.14 644.42,245.72 646.04,246.31 647.66,246.88 649.28,247.45 650.90,248.02 652.52,248.58 654.14,249.13 655.76,249.68 657.38,250.23 659.00,250.77 660.62,251.30 662.24,251.82 663.86,252.34 665.48,252.86 667.10,253.37 668.72,253.87 670.34,254.37 671.96,254.86 673.58,255.35 675.19,255.83 676.81,256.31 678.43,256.78 680.05,257.24 681.67,257.70 683.29,258.16 684.91,258.61 686.53,259.05 688.15,259.49 689.77,259.92 691.39,260.34 693.01,260.76 694.63,261.18 696.25,261.59 697.87,262.00 699.49,262.40 701.11,262.79 702.73,263.18 704.34,263.56 705.96,263.94 707.58,264.32 709.20,264.69 710.82,265.05 712.44,265.41 714.06,265.76 715.68,266.11 717.30,266.46 718.92,266.80 720.54,267.13 722.16,267.46 723.78,267.79 725.40,268.11 727.02,268.42 728.64,268.73 730.26,269.04 731.88,269.34 733.49,269.64 735.11,269.93 736.73,270.22 738.35,270.50 739.97,270.78 741.59,271.06 743.21,271.33 744.83,271.60 746.45,271.86 748.07,272.12 749.69,272.38 751.31,272.63 752.93,272.87 754.55,273.11 756.17,273.35 757.79,273.59 759.41,273.82 761.02,274.05 762.64,274.27 764.26,274.49 765.88,274.70 767.50,274.91 769.12,275.12 770.74,275.33 772.36,275.53 773.98,275.72 775.60,275.92 777.22,276.11 778.84,276.29 780.46,276.48 782.08,276.66 783.70,276.83 785.32,277.01 786.94,277.18 788.56,277.34 790.17,277.50 791.79,277.66 793.41,277.82 795.03,277.97 796.65,278.12 798.27,278.27 799.89,278.41 801.51,278.55 803.13,278.69 804.75,278.83 806.37,278.96 807.99,279.09 809.61,279.21 811.23,279.34 812.85,279.46 814.47,279.57 816.09,279.69 817.71,279.80 819.33,279.91 820.94,280.01 822.56,280.12 824.18,280.22 825.80,280.32 827.42,280.41 829.04,280.50 830.66,280.59 832.28,280.68 833.90,280.77 835.52,280.85 837.14,280.93 838.76,281.01 840.38,281.08 842.00,281.15 843.62,281.22 845.24,281.29 846.86,281.36 848.48,281.42 850.09,281.48 851.71,281.54 853.33,281.60 854.95,281.65 856.57,281.70 858.19,281.75 859.81,281.80 861.43,281.84 863.05,281.89 864.67,281.93 866.29,281.96 867.91,282.00 869.53,282.04 871.15,282.07 872.77,282.10 874.39,282.13 876.01,282.15 877.62,282.18 879.24,282.20 880.86,282.22 882.48,282.24 884.10,282.25 885.72,282.27 887.34,282.28 888.96,282.29 890.58,282.30 892.20,282.31 893.82,282.31 895.44,282.32 897.06,282.32 898.68,282.32 900.30,282.32 901.92,282.32 903.54,282.31 905.16,282.30 906.77,282.29 908.39,282.28 910.01,282.27 911.63,282.26 913.25,282.24 914.87,282.23 916.49,282.21 918.11,282.19 919.73,282.17 921.35,282.15 922.97,282.12 924.59,282.10 926.21,282.07 927.83,282.04 929.45,282.01 931.07,281.98 932.69,281.94 934.31,281.91 935.92,281.87 937.54,281.83 939.16,281.80 940.78,281.76 942.40,281.71 944.02,281.67 945.64,281.63 947.26,281.58 948.88,281.53 950.50,281.48 952.12,281.43 953.74,281.38 955.36,281.33 956.98,281.28 958.60,281.22 960.22,281.17 961.84,281.11 963.46,281.05 965.08,280.99 966.69,280.93 968.31,280.87 969.93,280.81 971.55,280.74 973.17,280.68 974.79,280.61 976.41,280.54 978.03,280.47 979.65,280.40 981.27,280.33 982.89,280.26 984.51,280.19 986.13,280.11 987.75,280.04 989.37,279.96 990.99,279.88 992.61,279.81 994.23,279.73 995.84,279.65 997.46,279.56 999.08,279.48 1000.70,279.40 1002.32,279.31 1003.94,279.23 1005.56,279.14 1007.18,279.06 1008.80,278.97 1010.42,278.88 1012.04,278.79 1013.66,278.70 1015.28,278.61 1016.90,278.51 1018.52,278.42 1020.14,278.33 1021.76,278.23 1023.38,278.14 1024.99,278.04 1026.61,277.94 1028.23,277.84 1029.85,277.74 1031.47,277.64 1033.09,277.54 1034.71,277.44 1036.33,277.34 1037.95,277.24 1039.57,277.13 1041.19,277.03 1042.81,276.92 1044.43,276.82 1046.05,276.71 1047.67,276.60 1049.29,276.49 1050.91,276.39 1052.53,276.28 1054.14,276.17 1055.76,276.05 1057.38,275.94 1059.00,275.83 1060.62,275.72 1062.24,275.60 1063.86,275.49 1065.48,275.38 1067.10,275.26 1068.72,275.14 1070.34,275.03 1071.96,274.91 1073.58,274.79 1075.20,274.67 1076.82,274.55 1078.44,274.43 1080.06,274.31 1081.67,274.19 1083.29,274.07 1084.91,273.95 1086.53,273.83 1088.15,273.70 1089.77,273.58 1091.39,273.46 1093.01,273.33 1094.63,273.21 1096.25,273.08 1097.87,272.95 1099.49,272.83 1101.11,272.70 1102.73,272.57 1104.35,272.44 1105.97,272.32 1107.59,272.19 1109.21,272.06 1110.83,271.93 1112.44,271.80 1114.06,271.66 1115.68,271.53 1117.30,271.40 1118.92,271.27 1120.54,271.14 1122.16,271.00 1123.78,270.87 1125.40,270.74 1127.02,270.60 1128.64,270.47 1130.26,270.33 1131.88,270.20 1133.50,270.06 1135.12,269.92 1136.74,269.79 1138.36,269.65 1139.97,269.51 1141.59,269.38 1143.21,269.24 1144.83,269.10 1146.45,268.96 1148.07,268.82 1149.69,268.68 1151.31,268.54 1152.93,268.40 1154.55,268.26 1156.17,268.12 1157.79,267.98 1159.41,267.84 1161.03,267.70 1162.65,267.55 1164.27,267.41 1165.89,267.27 1167.51,267.13 1169.12,266.98 1170.74,266.84 1172.36,266.70 1173.98,266.55 1175.60,266.41 1177.22,266.26 1178.84,266.12 1180.46,265.98 1182.08,265.83 1183.70,265.68 1185.32,265.54 1186.94,265.39 1188.56,265.25 1190.18,265.10 1191.80,264.95 1193.42,264.81 1195.04,264.66 1196.66,264.51 1198.28,264.37 1199.89,264.22 1201.51,264.07 1203.13,263.92 1204.75,263.77 1206.37,263.63 1207.99,263.48 1209.61,263.33 1211.23,263.18 1212.85,263.03 1214.47,262.88 1216.09,262.73 1217.71,262.58 1219.33,262.43 1220.95,262.28 1222.57,262.13 1224.19,261.98 1225.81,261.83 1227.42,261.68 1229.04,261.53 1230.66,261.38 1232.28,261.23 1233.90,261.08 1235.52,260.93 1237.14,260.78 1238.76,260.63 1240.38,260.48 1242.00,260.32" />
<text x="1180" y="320" font-size="10" font-family="Arial">time, min</text>
<text x="28" y="320" font-size="10" font-family="Arial">glucose mmol/L</text>
<line x1="1080" y1="66" x2="1098" y2="66" stroke="#1f77b4" stroke-width="2"/>
<text x="1104" y="70" font-size="11" font-family="Arial">old RK4</text>
<line x1="1080" y1="80" x2="1098" y2="80" stroke="#d62728" stroke-width="2"/>
<text x="1104" y="84" font-size="11" font-family="Arial">new LSODA</text>
<rect x="20" y="350" width="1240" height="280" fill="white" stroke="#d0d7de"/>
<text x="28" y="368" font-size="14" font-family="Arial">Trajectory (tms=30)</text>
<line x1="76" y1="598" x2="1242" y2="598" stroke="#555"/>
<line x1="76" y1="378" x2="76" y2="598" stroke="#555"/>
<line x1="76" y1="378.00" x2="1242" y2="378.00" stroke="#f0f0f0"/>
<text x="24" y="382.00" font-size="10" font-family="Arial">17.37</text>
<line x1="76" y1="433.00" x2="1242" y2="433.00" stroke="#f0f0f0"/>
<text x="24" y="437.00" font-size="10" font-family="Arial">14.86</text>
<line x1="76" y1="488.00" x2="1242" y2="488.00" stroke="#f0f0f0"/>
<text x="24" y="492.00" font-size="10" font-family="Arial">12.36</text>
<line x1="76" y1="543.00" x2="1242" y2="543.00" stroke="#f0f0f0"/>
<text x="24" y="547.00" font-size="10" font-family="Arial">9.85</text>
<line x1="76" y1="598.00" x2="1242" y2="598.00" stroke="#f0f0f0"/>
<text x="24" y="602.00" font-size="10" font-family="Arial">7.35</text>
<line x1="76.00" y1="378" x2="76.00" y2="598" stroke="#f5f5f5"/>
<text x="66.00" y="614" font-size="10" font-family="Arial">0</text>
<line x1="309.20" y1="378" x2="309.20" y2="598" stroke="#f5f5f5"/>
<text x="299.20" y="614" font-size="10" font-family="Arial">144</text>
<line x1="542.40" y1="378" x2="542.40" y2="598" stroke="#f5f5f5"/>
<text x="532.40" y="614" font-size="10" font-family="Arial">288</text>
<line x1="775.60" y1="378" x2="775.60" y2="598" stroke="#f5f5f5"/>
<text x="765.60" y="614" font-size="10" font-family="Arial">432</text>
<line x1="1008.80" y1="378" x2="1008.80" y2="598" stroke="#f5f5f5"/>
<text x="998.80" y="614" font-size="10" font-family="Arial">576</text>
<line x1="1242.00" y1="378" x2="1242.00" y2="598" stroke="#f5f5f5"/>
<text x="1232.00" y="614" font-size="10" font-family="Arial">720</text>
<polyline fill="none" stroke="#1f77b4" stroke-width="1.6" points="76.00,502.89 77.62,498.52 79.24,494.75 80.86,491.51 82.48,488.71 84.10,486.30 85.72,484.23 87.34,482.44 88.96,480.91 90.58,479.60 92.19,478.48 93.81,477.52 95.43,476.70 97.05,476.00 98.67,475.42 100.29,474.92 101.91,474.51 103.53,474.16 105.15,473.88 106.77,473.64 108.39,473.46 110.01,473.31 111.63,473.20 113.25,473.11 114.87,473.06 116.49,473.02 118.11,473.01 119.72,473.01 121.34,473.03 122.96,473.07 124.58,473.12 126.20,473.18 127.82,473.27 129.44,473.36 131.06,473.48 132.68,473.61 134.30,473.77 135.92,473.95 137.54,474.15 139.16,474.38 140.78,474.64 142.40,474.94 144.02,475.26 145.64,475.62 147.26,476.02 148.88,476.46 150.49,476.94 152.11,477.45 153.73,478.02 155.35,478.62 156.97,479.27 158.59,479.96 160.21,480.69 161.83,481.47 163.45,482.29 165.07,483.15 166.69,484.06 168.31,485.01 169.93,486.01 171.55,487.05 173.17,488.13 174.79,489.26 176.41,490.43 178.03,491.66 179.64,492.93 181.26,494.25 182.88,495.63 184.50,497.05 186.12,498.54 187.74,500.08 189.36,501.68 190.98,503.34 192.60,505.06 194.22,506.84 195.84,508.68 197.46,510.59 199.08,512.55 200.70,514.57 202.32,516.64 203.94,518.78 205.56,520.96 207.18,523.20 208.79,525.49 210.41,527.82 212.03,530.20 213.65,532.62 215.27,535.09 216.89,537.59 218.51,540.12 220.13,542.69 221.75,545.28 223.37,547.90 224.99,550.54 226.61,553.18 228.23,555.82 229.85,558.46 231.47,561.09 233.09,563.70 234.71,566.30 236.32,568.86 237.94,571.36 239.56,573.80 241.18,576.12 242.80,578.27 244.42,580.15 246.04,581.62 247.66,582.55 249.28,582.83 250.90,582.38 252.52,581.15 254.14,579.13 255.76,576.31 257.38,572.73 259.00,568.43 260.62,563.47 262.24,557.91 263.86,551.83 265.48,545.30 267.09,538.41 268.71,531.24 270.33,523.89 271.95,516.45 273.57,508.99 275.19,501.59 276.81,494.32 278.43,487.22 280.05,480.35 281.67,473.73 283.29,467.41 284.91,461.38 286.53,455.68 288.15,450.30 289.77,445.25 291.39,440.53 293.01,436.14 294.62,432.06 296.24,428.29 297.86,424.82 299.48,421.65 301.10,418.75 302.72,416.13 304.34,413.76 305.96,411.64 307.58,409.75 309.20,408.09 310.82,406.64 312.44,405.39 314.06,404.33 315.68,403.44 317.30,402.73 318.92,402.18 320.54,401.78 322.16,401.52 323.77,401.39 325.39,401.39 327.01,401.51 328.63,401.73 330.25,402.06 331.87,402.48 333.49,402.99 335.11,403.58 336.73,404.25 338.35,405.00 339.97,405.80 341.59,406.67 343.21,407.60 344.83,408.57 346.45,409.60 348.07,410.67 349.69,411.77 351.31,412.92 352.93,414.09 354.54,415.30 356.16,416.53 357.78,417.79 359.40,419.07 361.02,420.36 362.64,421.67 364.26,423.00 365.88,424.34 367.50,425.68 369.12,427.04 370.74,428.40 372.36,429.77 373.98,431.14 375.60,432.51 377.22,433.88 378.84,435.25 380.46,436.61 382.07,437.98 383.69,439.34 385.31,440.69 386.93,442.04 388.55,443.38 390.17,444.71 391.79,446.04 393.41,447.35 395.03,448.66 396.65,449.95 398.27,451.24 399.89,452.51 401.51,453.77 403.13,455.02 404.75,456.26 406.37,457.48 407.99,458.69 409.61,459.89 411.23,461.07 412.84,462.24 414.46,463.40 416.08,464.54 417.70,465.67 419.32,466.78 420.94,467.87 422.56,468.96 424.18,470.02 425.80,471.08 427.42,472.11 429.04,473.13 430.66,474.14 432.28,475.13 433.90,476.10 435.52,477.06 437.14,478.01 438.76,478.94 440.38,479.85 441.99,480.75 443.61,481.63 445.23,482.49 446.85,483.34 448.47,484.17 450.09,484.99 451.71,485.79 453.33,486.57 454.95,487.34 456.57,488.09 458.19,488.82 459.81,489.54 461.43,490.24 463.05,490.93 464.67,491.59 466.29,492.24 467.91,492.87 469.52,493.48 471.14,494.07 472.76,494.65 474.38,495.20 476.00,495.74 477.62,496.26 479.24,496.75 480.86,497.23 482.48,497.68 484.10,498.11 485.72,498.52 487.34,498.90 488.96,499.26 490.58,499.60 492.20,499.91 493.82,500.19 495.44,500.44 497.06,500.67 498.68,500.86 500.29,501.02 501.91,501.14 503.53,501.23 505.15,501.28 506.77,501.29 508.39,501.26 510.01,501.19 511.63,501.06 513.25,500.89 514.87,500.66 516.49,500.37 518.11,500.02 519.73,499.61 521.35,499.13 522.97,498.57 524.59,497.94 526.21,497.24 527.83,496.45 529.44,495.57 531.06,494.62 532.68,493.58 534.30,492.47 535.92,491.27 537.54,490.01 539.16,488.69 540.78,487.31 542.40,485.89 544.02,484.44 545.64,482.96 547.26,481.48 548.88,479.99 550.50,478.52 552.12,477.06 553.74,475.63 555.36,474.24 556.98,472.90 558.59,471.60 560.21,470.36 561.83,469.18 563.45,468.06 565.07,467.01 566.69,466.02 568.31,465.11 569.93,464.27 571.55,463.50 573.17,462.80 574.79,462.17 576.41,461.61 578.03,461.12 579.65,460.71 581.27,460.35 582.89,460.07 584.51,459.85 586.12,459.69 587.74,459.59 589.36,459.56 590.98,459.57 592.60,459.65 594.22,459.77 595.84,459.95 597.46,460.17 599.08,460.44 600.70,460.76 602.32,461.11 603.94,461.51 605.56,461.94 607.18,462.42 608.80,462.92 610.42,463.46 612.04,464.03 613.66,464.62 615.27,465.25 616.89,465.89 618.51,466.57 620.13,467.26 621.75,467.98 623.37,468.71 624.99,469.47 626.61,470.23 628.23,471.02 629.85,471.82 631.47,472.63 633.09,473.45 634.71,474.28 636.33,475.12 637.95,475.97 639.57,476.83 641.19,477.69 642.81,478.56 644.42,479.43 646.04,480.31 647.66,481.19 649.28,482.08 650.90,482.96 652.52,483.84 654.14,484.73 655.76,485.61 657.38,486.50 659.00,487.38 660.62,488.26 662.24,489.14 663.86,490.02 665.48,490.89 667.10,491.75 668.72,492.62 670.34,493.48 671.96,494.33 673.58,495.18 675.19,496.03 676.81,496.86 678.43,497.70 680.05,498.52 681.67,499.34 683.29,500.15 684.91,500.96 686.53,501.76 688.15,502.55 689.77,503.33 691.39,504.11 693.01,504.87 694.63,505.63 696.25,506.39 697.87,507.13 699.49,507.87 701.11,508.59 702.73,509.31 704.34,510.02 705.96,510.73 707.58,511.42 709.20,512.11 710.82,512.78 712.44,513.45 714.06,514.11 715.68,514.76 717.30,515.40 718.92,516.04 720.54,516.66 722.16,517.28 723.78,517.89 725.40,518.49 727.02,519.08 728.64,519.66 730.26,520.23 731.88,520.80 733.49,521.35 735.11,521.90 736.73,522.44 738.35,522.98 739.97,523.50 741.59,524.01 743.21,524.52 744.83,525.02 746.45,525.52 748.07,526.00 749.69,526.48 751.31,526.95 752.93,527.42 754.55,527.88 756.17,528.33 757.79,528.78 759.41,529.21 761.02,529.65 762.64,530.07 764.26,530.49 765.88,530.91 767.50,531.32 769.12,531.72 770.74,532.12 772.36,532.51 773.98,532.90 775.60,533.28 777.22,533.66 778.84,534.03 780.46,534.40 782.08,534.76 783.70,535.11 785.32,535.46 786.94,535.81 788.56,536.15 790.17,536.48 791.79,536.81 793.41,537.14 795.03,537.46 796.65,537.78 798.27,538.09 799.89,538.40 801.51,538.70 803.13,539.00 804.75,539.29 806.37,539.58 807.99,539.86 809.61,540.14 811.23,540.42 812.85,540.69 814.47,540.96 816.09,541.22 817.71,541.48 819.33,541.74 820.94,541.99 822.56,542.24 824.18,542.48 825.80,542.72 827.42,542.95 829.04,543.18 830.66,543.41 832.28,543.64 833.90,543.86 835.52,544.07 837.14,544.28 838.76,544.49 840.38,544.70 842.00,544.90 843.62,545.10 845.24,545.29 846.86,545.48 848.48,545.67 850.09,545.86 851.71,546.04 853.33,546.21 854.95,546.39 856.57,546.56 858.19,546.73 859.81,546.89 861.43,547.05 863.05,547.21 864.67,547.37 866.29,547.52 867.91,547.67 869.53,547.81 871.15,547.95 872.77,548.09 874.39,548.23 876.01,548.36 877.62,548.49 879.24,548.62 880.86,548.75 882.48,548.87 884.10,548.99 885.72,549.10 887.34,549.22 888.96,549.33 890.58,549.44 892.20,549.54 893.82,549.64 895.44,549.74 897.06,549.84 898.68,549.94 900.30,550.03 901.92,550.12 903.54,550.20 905.16,550.29 906.77,550.37 908.39,550.45 910.01,550.53 911.63,550.60 913.25,550.67 914.87,550.74 916.49,550.81 918.11,550.88 919.73,550.94 921.35,551.00 922.97,551.06 924.59,551.11 926.21,551.17 927.83,551.22 929.45,551.27 931.07,551.32 932.69,551.36 934.31,551.40 935.92,551.44 937.54,551.48 939.16,551.52 940.78,551.55 942.40,551.59 944.02,551.62 945.64,551.64 947.26,551.67 948.88,551.70 950.50,551.72 952.12,551.74 953.74,551.76 955.36,551.77 956.98,551.79 958.60,551.80 960.22,551.81 961.84,551.82 963.46,551.83 965.08,551.83 966.69,551.84 968.31,551.84 969.93,551.84 971.55,551.84 973.17,551.83 974.79,551.83 976.41,551.82 978.03,551.81 979.65,551.80 981.27,551.79 982.89,551.78 984.51,551.76 986.13,551.74 987.75,551.73 989.37,551.71 990.99,551.68 992.61,551.66 994.23,551.64 995.84,551.61 997.46,551.58 999.08,551.55 1000.70,551.52 1002.32,551.49 1003.94,551.46 1005.56,551.42 1007.18,551.38 1008.80,551.35 1010.42,551.31 1012.04,551.27 1013.66,551.22 1015.28,551.18 1016.90,551.13 1018.52,551.09 1020.14,551.04 1021.76,550.99 1023.38,550.94 1024.99,550.89 1026.61,550.84 1028.23,550.78 1029.85,550.73 1031.47,550.67 1033.09,550.61 1034.71,550.55 1036.33,550.49 1037.95,550.43 1039.57,550.37 1041.19,550.30 1042.81,550.24 1044.43,550.17 1046.05,550.11 1047.67,550.04 1049.29,549.97 1050.91,549.90 1052.53,549.82 1054.14,549.75 1055.76,549.68 1057.38,549.60 1059.00,549.53 1060.62,549.45 1062.24,549.37 1063.86,549.29 1065.48,549.21 1067.10,549.13 1068.72,549.05 1070.34,548.96 1071.96,548.88 1073.58,548.79 1075.20,548.71 1076.82,548.62 1078.44,548.53 1080.06,548.44 1081.67,548.35 1083.29,548.26 1084.91,548.17 1086.53,548.08 1088.15,547.98 1089.77,547.89 1091.39,547.79 1093.01,547.70 1094.63,547.60 1096.25,547.50 1097.87,547.40 1099.49,547.30 1101.11,547.20 1102.73,547.10 1104.35,547.00 1105.97,546.89 1107.59,546.79 1109.21,546.68 1110.83,546.58 1112.44,546.47 1114.06,546.37 1115.68,546.26 1117.30,546.15 1118.92,546.04 1120.54,545.93 1122.16,545.82 1123.78,545.71 1125.40,545.60 1127.02,545.48 1128.64,545.37 1130.26,545.26 1131.88,545.14 1133.50,545.03 1135.12,544.91 1136.74,544.79 1138.36,544.68 1139.97,544.56 1141.59,544.44 1143.21,544.32 1144.83,544.20 1146.45,544.08 1148.07,543.96 1149.69,543.84 1151.31,543.71 1152.93,543.59 1154.55,543.47 1156.17,543.34 1157.79,543.22 1159.41,543.09 1161.03,542.97 1162.65,542.84 1164.27,542.71 1165.89,542.59 1167.51,542.46 1169.12,542.33 1170.74,542.20 1172.36,542.07 1173.98,541.94 1175.60,541.81 1177.22,541.68 1178.84,541.55 1180.46,541.42 1182.08,541.28 1183.70,541.15 1185.32,541.02 1186.94,540.89 1188.56,540.75 1190.18,540.62 1191.80,540.48 1193.42,540.35 1195.04,540.21 1196.66,540.07 1198.28,539.94 1199.89,539.80 1201.51,539.66 1203.13,539.52 1204.75,539.39 1206.37,539.25 1207.99,539.11 1209.61,538.97 1211.23,538.83 1212.85,538.69 1214.47,538.55 1216.09,538.41 1217.71,538.27 1219.33,538.12 1220.95,537.98 1222.57,537.84 1224.19,537.70 1225.81,537.55 1227.42,537.41 1229.04,537.27 1230.66,537.12 1232.28,536.98 1233.90,536.83 1235.52,536.69 1237.14,536.54 1238.76,536.40 1240.38,536.25 1242.00,536.11" />
<polyline fill="none" stroke="#d62728" stroke-width="1.6" points="76.00,502.89 77.62,498.52 79.24,494.75 80.86,491.51 82.48,488.71 84.10,486.30 85.72,484.23 87.34,482.44 88.96,480.91 90.58,479.60 92.19,478.48 93.81,477.52 95.43,476.70 97.05,476.00 98.67,475.42 100.29,474.92 101.91,474.51 103.53,474.16 105.15,473.88 106.77,473.64 108.39,473.46 110.01,473.31 111.63,473.20 113.25,473.11 114.87,473.06 116.49,473.02 118.11,473.01 119.72,473.01 121.34,473.03 122.96,473.07 124.58,473.12 126.20,473.18 127.82,473.27 129.44,473.36 131.06,473.48 132.68,473.61 134.30,473.77 135.92,473.95 137.54,474.15 139.16,474.38 140.78,474.64 142.40,474.94 144.02,475.26 145.64,475.62 147.26,476.02 148.88,476.46 150.49,476.94 152.11,477.45 153.73,478.02 155.35,478.62 156.97,479.27 158.59,479.96 160.21,480.69 161.83,481.47 163.45,482.29 165.07,483.15 166.69,484.06 168.31,485.01 169.93,486.01 171.55,487.05 173.17,488.13 174.79,489.26 176.41,490.43 178.03,491.66 179.64,492.93 181.26,494.25 182.88,495.63 184.50,497.05 186.12,498.54 187.74,500.08 189.36,501.68 190.98,503.34 192.60,505.06 194.22,506.84 195.84,508.68 197.46,510.59 199.08,512.55 200.70,514.57 202.32,516.64 203.94,518.78 205.56,520.96 207.18,523.20 208.79,525.49 210.41,527.82 212.03,530.20 213.65,532.62 215.27,535.09 216.89,537.59 218.51,540.12 220.13,542.69 221.75,545.28 223.37,547.90 224.99,550.54 226.61,553.17 228.23,555.81 229.85,558.44 231.47,561.07 233.09,563.69 234.71,566.27 236.32,568.83 237.94,571.32 239.56,573.74 241.18,576.04 242.80,578.16 244.42,579.98 246.04,581.37 247.66,582.20 249.28,582.37 250.90,581.79 252.52,580.44 254.14,578.29 255.76,575.34 257.38,571.62 259.00,567.17 260.62,562.04 262.24,556.31 263.86,550.02 265.48,543.27 267.09,536.14 268.71,528.71 270.33,521.08 271.95,513.33 273.57,505.56 275.19,497.83 276.81,490.23 278.43,482.80 280.05,475.60 281.67,468.67 283.29,462.03 284.91,455.72 286.53,449.74 288.15,444.10 289.77,438.80 291.39,433.86 293.01,429.25 294.62,424.98 296.24,421.04 297.86,417.41 299.48,414.10 301.10,411.08 302.72,408.34 304.34,405.88 305.96,403.67 307.58,401.71 309.20,399.99 310.82,398.49 312.44,397.20 314.06,396.11 315.68,395.21 317.30,394.49 318.92,393.93 320.54,393.53 322.16,393.28 323.77,393.17 325.39,393.19 327.01,393.34 328.63,393.59 330.25,393.96 331.87,394.42 333.49,394.97 335.11,395.62 336.73,396.34 338.35,397.13 339.97,398.00 341.59,398.93 343.21,399.91 344.83,400.95 346.45,402.04 348.07,403.18 349.69,404.36 351.31,405.57 352.93,406.82 354.54,408.10 356.16,409.40 357.78,410.73 359.40,412.08 361.02,413.45 362.64,414.84 364.26,416.24 365.88,417.65 367.50,419.08 369.12,420.51 370.74,421.94 372.36,423.38 373.98,424.83 375.60,426.27 377.22,427.72 378.84,429.16 380.46,430.60 382.07,432.04 383.69,433.47 385.31,434.90 386.93,436.32 388.55,437.73 390.17,439.14 391.79,440.53 393.41,441.91 395.03,443.29 396.65,444.65 398.27,446.00 399.89,447.34 401.51,448.67 403.13,449.99 404.75,451.29 406.37,452.58 407.99,453.85 409.61,455.11 411.23,456.35 412.84,457.58 414.46,458.80 416.08,460.00 417.70,461.18 419.32,462.35 420.94,463.51 422.56,464.65 424.18,465.77 425.80,466.88 427.42,467.97 429.04,469.04 430.66,470.10 432.28,471.14 433.90,472.17 435.52,473.18 437.14,474.17 438.76,475.15 440.38,476.11 441.99,477.06 443.61,477.98 445.23,478.89 446.85,479.79 448.47,480.67 450.09,481.53 451.71,482.37 453.33,483.20 454.95,484.01 456.57,484.80 458.19,485.58 459.81,486.34 461.43,487.08 463.05,487.80 464.67,488.51 466.29,489.20 467.91,489.87 469.52,490.52 471.14,491.15 472.76,491.76 474.38,492.36 476.00,492.93 477.62,493.48 479.24,494.01 480.86,494.53 482.48,495.02 484.10,495.48 485.72,495.93 487.34,496.35 488.96,496.75 490.58,497.12 492.20,497.46 493.82,497.78 495.44,498.07 497.06,498.33 498.68,498.56 500.29,498.75 501.91,498.92 503.53,499.04 505.15,499.13 506.77,499.18 508.39,499.19 510.01,499.16 511.63,499.07 513.25,498.94 514.87,498.75 516.49,498.51 518.11,498.21 519.73,497.84 521.35,497.41 522.97,496.91 524.59,496.33 526.21,495.67 527.83,494.94 529.44,494.12 531.06,493.22 532.68,492.23 534.30,491.17 535.92,490.02 537.54,488.81 539.16,487.52 540.78,486.18 542.40,484.80 544.02,483.37 545.64,481.92 547.26,480.45 548.88,478.98 550.50,477.51 552.12,476.06 553.74,474.63 555.36,473.24 556.98,471.88 558.59,470.58 560.21,469.33 561.83,468.13 563.45,467.00 565.07,465.93 566.69,464.92 568.31,463.99 569.93,463.13 571.55,462.34 573.17,461.62 574.79,460.97 576.41,460.39 578.03,459.88 579.65,459.45 581.27,459.08 582.89,458.77 584.51,458.53 586.12,458.36 587.74,458.24 589.36,458.19 590.98,458.19 592.60,458.25 594.22,458.36 595.84,458.53 597.46,458.74 599.08,459.00 600.70,459.30 602.32,459.65 603.94,460.04 605.56,460.46 607.18,460.93 608.80,461.42 610.42,461.96 612.04,462.52 613.66,463.11 615.27,463.73 616.89,464.38 618.51,465.05 620.13,465.74 621.75,466.45 623.37,467.19 624.99,467.94 626.61,468.71 628.23,469.49 629.85,470.29 631.47,471.10 633.09,471.93 634.71,472.76 636.33,473.61 637.95,474.46 639.57,475.32 641.19,476.19 642.81,477.06 644.42,477.94 646.04,478.82 647.66,479.71 649.28,480.60 650.90,481.49 652.52,482.38 654.14,483.27 655.76,484.16 657.38,485.05 659.00,485.94 660.62,486.83 662.24,487.71 663.86,488.60 665.48,489.48 667.10,490.35 668.72,491.22 670.34,492.09 671.96,492.95 673.58,493.81 675.19,494.66 676.81,495.51 678.43,496.35 680.05,497.18 681.67,498.01 683.29,498.83 684.91,499.65 686.53,500.45 688.15,501.25 689.77,502.05 691.39,502.83 693.01,503.61 694.63,504.38 696.25,505.14 697.87,505.89 699.49,506.63 701.11,507.37 702.73,508.10 704.34,508.82 705.96,509.53 707.58,510.23 709.20,510.93 710.82,511.61 712.44,512.29 714.06,512.96 715.68,513.62 717.30,514.27 718.92,514.91 720.54,515.55 722.16,516.17 723.78,516.79 725.40,517.40 727.02,518.00 728.64,518.59 730.26,519.17 731.88,519.74 733.49,520.31 735.11,520.86 736.73,521.41 738.35,521.95 739.97,522.48 741.59,523.01 743.21,523.52 744.83,524.03 746.45,524.53 748.07,525.02 749.69,525.51 751.31,525.99 752.93,526.46 754.55,526.92 756.17,527.38 757.79,527.83 759.41,528.28 761.02,528.71 762.64,529.14 764.26,529.57 765.88,529.99 767.50,530.40 769.12,530.81 770.74,531.21 772.36,531.61 773.98,532.00 775.60,532.39 777.22,532.77 778.84,533.14 780.46,533.51 782.08,533.88 783.70,534.23 785.32,534.59 786.94,534.94 788.56,535.28 790.17,535.62 791.79,535.95 793.41,536.28 795.03,536.61 796.65,536.93 798.27,537.24 799.89,537.55 801.51,537.86 803.13,538.16 804.75,538.46 806.37,538.75 807.99,539.04 809.61,539.32 811.23,539.60 812.85,539.87 814.47,540.14 816.09,540.41 817.71,540.67 819.33,540.93 820.94,541.18 822.56,541.43 824.18,541.68 825.80,541.92 827.42,542.16 829.04,542.39 830.66,542.62 832.28,542.85 833.90,543.07 835.52,543.29 837.14,543.51 838.76,543.72 840.38,543.93 842.00,544.13 843.62,544.33 845.24,544.53 846.86,544.72 848.48,544.91 850.09,545.10 851.71,545.28 853.33,545.46 854.95,545.64 856.57,545.81 858.19,545.98 859.81,546.15 861.43,546.31 863.05,546.47 864.67,546.63 866.29,546.78 867.91,546.93 869.53,547.08 871.15,547.23 872.77,547.37 874.39,547.51 876.01,547.64 877.62,547.78 879.24,547.91 880.86,548.03 882.48,548.16 884.10,548.28 885.72,548.40 887.34,548.51 888.96,548.63 890.58,548.74 892.20,548.84 893.82,548.95 895.44,549.05 897.06,549.15 898.68,549.25 900.30,549.34 901.92,549.43 903.54,549.52 905.16,549.61 906.77,549.69 908.39,549.78 910.01,549.85 911.63,549.93 913.25,550.01 914.87,550.08 916.49,550.15 918.11,550.21 919.73,550.28 921.35,550.34 922.97,550.40 924.59,550.46 926.21,550.52 927.83,550.57 929.45,550.62 931.07,550.67 932.69,550.72 934.31,550.76 935.92,550.80 937.54,550.84 939.16,550.88 940.78,550.92 942.40,550.95 944.02,550.98 945.64,551.02 947.26,551.04 948.88,551.07 950.50,551.09 952.12,551.12 953.74,551.14 955.36,551.15 956.98,551.17 958.60,551.19 960.22,551.20 961.84,551.21 963.46,551.22 965.08,551.23 966.69,551.23 968.31,551.23 969.93,551.24 971.55,551.24 973.17,551.23 974.79,551.23 976.41,551.23 978.03,551.22 979.65,551.21 981.27,551.20 982.89,551.19 984.51,551.17 986.13,551.16 987.75,551.14 989.37,551.12 990.99,551.10 992.61,551.08 994.23,551.06 995.84,551.04 997.46,551.01 999.08,550.98 1000.70,550.95 1002.32,550.92 1003.94,550.89 1005.56,550.86 1007.18,550.82 1008.80,550.79 1010.42,550.75 1012.04,550.71 1013.66,550.67 1015.28,550.63 1016.90,550.58 1018.52,550.54 1020.14,550.49 1021.76,550.44 1023.38,550.40 1024.99,550.35 1026.61,550.29 1028.23,550.24 1029.85,550.19 1031.47,550.13 1033.09,550.08 1034.71,550.02 1036.33,549.96 1037.95,549.90 1039.57,549.84 1041.19,549.78 1042.81,549.71 1044.43,549.65 1046.05,549.58 1047.67,549.52 1049.29,549.45 1050.91,549.38 1052.53,549.31 1054.14,549.24 1055.76,549.16 1057.38,549.09 1059.00,549.01 1060.62,548.94 1062.24,548.86 1063.86,548.78 1065.48,548.70 1067.10,548.62 1068.72,548.54 1070.34,548.46 1071.96,548.38 1073.58,548.29 1075.20,548.21 1076.82,548.12 1078.44,548.04 1080.06,547.95 1081.67,547.86 1083.29,547.77 1084.91,547.68 1086.53,547.59 1088.15,547.50 1089.77,547.40 1091.39,547.31 1093.01,547.21 1094.63,547.12 1096.25,547.02 1097.87,546.92 1099.49,546.82 1101.11,546.73 1102.73,546.62 1104.35,546.52 1105.97,546.42 1107.59,546.32 1109.21,546.22 1110.83,546.11 1112.44,546.01 1114.06,545.90 1115.68,545.80 1117.30,545.69 1118.92,545.58 1120.54,545.47 1122.16,545.36 1123.78,545.25 1125.40,545.14 1127.02,545.03 1128.64,544.92 1130.26,544.80 1131.88,544.69 1133.50,544.58 1135.12,544.46 1136.74,544.35 1138.36,544.23 1139.97,544.11 1141.59,544.00 1143.21,543.88 1144.83,543.76 1146.45,543.64 1148.07,543.52 1149.69,543.40 1151.31,543.28 1152.93,543.16 1154.55,543.03 1156.17,542.91 1157.79,542.79 1159.41,542.66 1161.03,542.54 1162.65,542.41 1164.27,542.29 1165.89,542.16 1167.51,542.04 1169.12,541.91 1170.74,541.78 1172.36,541.65 1173.98,541.52 1175.60,541.39 1177.22,541.26 1178.84,541.13 1180.46,541.00 1182.08,540.87 1183.70,540.74 1185.32,540.61 1186.94,540.48 1188.56,540.34 1190.18,540.21 1191.80,540.08 1193.42,539.94 1195.04,539.81 1196.66,539.67 1198.28,539.54 1199.89,539.40 1201.51,539.26 1203.13,539.13 1204.75,538.99 1206.37,538.85 1207.99,538.71 1209.61,538.57 1211.23,538.44 1212.85,538.30 1214.47,538.16 1216.09,538.02 1217.71,537.88 1219.33,537.74 1220.95,537.60 1222.57,537.45 1224.19,537.31 1225.81,537.17 1227.42,537.03 1229.04,536.89 1230.66,536.74 1232.28,536.60 1233.90,536.46 1235.52,536.31 1237.14,536.17 1238.76,536.02 1240.38,535.88 1242.00,535.73" />
<text x="1180" y="620" font-size="10" font-family="Arial">time, min</text>
<text x="28" y="620" font-size="10" font-family="Arial">glucose mmol/L</text>
<line x1="1080" y1="366" x2="1098" y2="366" stroke="#1f77b4" stroke-width="2"/>
<text x="1104" y="370" font-size="11" font-family="Arial">old RK4</text>
<line x1="1080" y1="380" x2="1098" y2="380" stroke="#d62728" stroke-width="2"/>
<text x="1104" y="384" font-size="11" font-family="Arial">new LSODA</text>
<rect x="20" y="650" width="1240" height="280" fill="white" stroke="#d0d7de"/>
<text x="28" y="668" font-size="14" font-family="Arial">Difference (new-old) in mmol/L</text>
<line x1="76" y1="898" x2="1242" y2="898" stroke="#555"/>
<line x1="76" y1="678" x2="76" y2="898" stroke="#555"/>
<line x1="76" y1="678.00" x2="1242" y2="678.00" stroke="#f0f0f0"/>
<text x="24" y="682.00" font-size="10" font-family="Arial">0.41</text>
<line x1="76" y1="733.00" x2="1242" y2="733.00" stroke="#f0f0f0"/>
<text x="24" y="737.00" font-size="10" font-family="Arial">0.30</text>
<line x1="76" y1="788.00" x2="1242" y2="788.00" stroke="#f0f0f0"/>
<text x="24" y="792.00" font-size="10" font-family="Arial">0.19</text>
<line x1="76" y1="843.00" x2="1242" y2="843.00" stroke="#f0f0f0"/>
<text x="24" y="847.00" font-size="10" font-family="Arial">0.08</text>
<line x1="76" y1="898.00" x2="1242" y2="898.00" stroke="#f0f0f0"/>
<text x="24" y="902.00" font-size="10" font-family="Arial">-0.03</text>
<line x1="76.00" y1="678" x2="76.00" y2="898" stroke="#f5f5f5"/>
<text x="66.00" y="914" font-size="10" font-family="Arial">0</text>
<line x1="309.20" y1="678" x2="309.20" y2="898" stroke="#f5f5f5"/>
<text x="299.20" y="914" font-size="10" font-family="Arial">144</text>
<line x1="542.40" y1="678" x2="542.40" y2="898" stroke="#f5f5f5"/>
<text x="532.40" y="914" font-size="10" font-family="Arial">288</text>
<line x1="775.60" y1="678" x2="775.60" y2="898" stroke="#f5f5f5"/>
<text x="765.60" y="914" font-size="10" font-family="Arial">432</text>
<line x1="1008.80" y1="678" x2="1008.80" y2="898" stroke="#f5f5f5"/>
<text x="998.80" y="914" font-size="10" font-family="Arial">576</text>
<line x1="1242.00" y1="678" x2="1242.00" y2="898" stroke="#f5f5f5"/>
<text x="1232.00" y="914" font-size="10" font-family="Arial">720</text>
<polyline fill="none" stroke="#2ca02c" stroke-width="1.6" points="76.00,882.82 77.62,882.82 79.24,882.82 80.86,882.82 82.48,882.82 84.10,882.82 85.72,882.82 87.34,882.82 88.96,882.82 90.58,882.82 92.19,882.82 93.81,882.82 95.43,882.82 97.05,882.82 98.67,882.82 100.29,882.82 101.91,882.82 103.53,882.82 105.15,882.82 106.77,882.82 108.39,882.82 110.01,882.82 111.63,882.82 113.25,882.82 114.87,882.82 116.49,882.82 118.11,882.82 119.72,882.82 121.34,882.82 122.96,882.82 124.58,882.82 126.20,882.82 127.82,882.82 129.44,882.82 131.06,882.82 132.68,882.82 134.30,882.82 135.92,882.83 137.54,882.83 139.16,882.83 140.78,882.83 142.40,882.83 144.02,882.83 145.64,882.83 147.26,882.83 148.88,882.83 150.49,882.83 152.11,882.83 153.73,882.83 155.35,882.83 156.97,882.83 158.59,882.83 160.21,882.83 161.83,882.83 163.45,882.83 165.07,882.83 166.69,882.83 168.31,882.83 169.93,882.83 171.55,882.83 173.17,882.83 174.79,882.82 176.41,882.77 178.03,882.69 179.64,882.63 181.26,882.57 182.88,882.50 184.50,882.41 186.12,882.29 187.74,882.12 189.36,881.90 190.98,881.58 192.60,881.08 194.22,880.28 195.84,879.03 197.46,877.27 199.08,875.04 200.70,872.48 202.32,869.72 203.94,866.84 205.56,863.93 207.18,860.95 208.79,857.80 210.41,854.41 212.03,850.72 213.65,846.66 215.27,842.19 216.89,837.24 218.51,831.80 220.13,825.87 221.75,819.45 223.37,812.63 224.99,805.47 226.61,798.08 228.23,790.56 229.85,783.04 231.47,775.60 233.09,768.33 234.71,761.29 236.32,754.56 237.94,748.16 239.56,742.12 241.18,736.47 242.80,731.20 244.42,726.33 246.04,721.86 247.66,717.76 249.28,714.04 250.90,710.68 252.52,707.67 254.14,705.00 255.76,702.64 257.38,700.58 259.00,698.81 260.62,697.31 262.24,696.06 263.86,695.06 265.48,694.28 267.09,693.72 268.71,693.35 270.33,693.17 271.95,693.17 273.57,693.33 275.19,693.65 276.81,694.11 278.43,694.70 280.05,695.41 281.67,696.24 283.29,697.18 284.91,698.21 286.53,699.34 288.15,700.56 289.77,701.85 291.39,703.21 293.01,704.63 294.62,706.02 296.24,707.37 297.86,708.72 299.48,710.07 301.10,711.44 302.72,712.86 304.34,714.33 305.96,715.86 307.58,717.47 309.20,719.17 310.82,720.97 312.44,722.87 314.06,724.84 315.68,726.82 317.30,728.80 318.92,730.78 320.54,732.76 322.16,734.73 323.77,736.70 325.39,738.66 327.01,740.62 328.63,742.57 330.25,744.51 331.87,746.44 333.49,748.36 335.11,750.26 336.73,752.16 338.35,754.04 339.97,755.90 341.59,757.75 343.21,759.59 344.83,761.41 346.45,763.21 348.07,764.99 349.69,766.76 351.31,768.50 352.93,770.23 354.54,771.94 356.16,773.63 357.78,775.30 359.40,776.94 361.02,778.57 362.64,780.18 364.26,781.76 365.88,783.33 367.50,784.87 369.12,786.39 370.74,787.89 372.36,789.37 373.98,790.83 375.60,792.27 377.22,793.69 378.84,795.08 380.46,796.46 382.07,797.81 383.69,799.14 385.31,800.46 386.93,801.75 388.55,803.02 390.17,804.27 391.79,805.51 393.41,806.72 395.03,807.92 396.65,809.10 398.27,810.25 399.89,811.40 401.51,812.52 403.13,813.62 404.75,814.71 406.37,815.79 407.99,816.84 409.61,817.88 411.23,818.91 412.84,819.92 414.46,820.92 416.08,821.90 417.70,822.87 419.32,823.82 420.94,824.77 422.56,825.70 424.18,826.62 425.80,827.53 427.42,828.42 429.04,829.31 430.66,830.19 432.28,831.07 433.90,831.93 435.52,832.79 437.14,833.64 438.76,834.49 440.38,835.32 441.99,836.15 443.61,836.97 445.23,837.77 446.85,838.56 448.47,839.35 450.09,840.13 451.71,840.90 453.33,841.68 454.95,842.45 456.57,843.23 458.19,844.02 459.81,844.81 461.43,845.62 463.05,846.45 464.67,847.29 466.29,848.15 467.91,849.04 469.52,849.96 471.14,850.90 472.76,851.87 474.38,852.87 476.00,853.89 477.62,854.93 479.24,855.99 480.86,857.06 482.48,858.12 484.10,859.16 485.72,860.17 487.34,861.14 488.96,862.04 490.58,862.86 492.20,863.60 493.82,864.23 495.44,864.76 497.06,865.18 498.68,865.50 500.29,865.70 501.91,865.81 503.53,865.82 505.15,865.74 506.77,865.59 508.39,865.37 510.01,865.08 511.63,864.75 513.25,864.37 514.87,863.96 516.49,863.51 518.11,863.05 519.73,862.56 521.35,862.07 522.97,861.57 524.59,861.06 526.21,860.56 527.83,860.06 529.44,859.57 531.06,859.09 532.68,858.62 534.30,858.16 535.92,857.72 537.54,857.29 539.16,856.88 540.78,856.49 542.40,856.11 544.02,855.76 545.64,855.42 547.26,855.10 548.88,854.81 550.50,854.53 552.12,854.27 553.74,854.03 555.36,853.80 556.98,853.60 558.59,853.41 560.21,853.24 561.83,853.09 563.45,852.95 565.07,852.83 566.69,852.73 568.31,852.64 569.93,852.56 571.55,852.50 573.17,852.45 574.79,852.42 576.41,852.40 578.03,852.39 579.65,852.39 581.27,852.41 582.89,852.43 584.51,852.47 586.12,852.51 587.74,852.57 589.36,852.63 590.98,852.70 592.60,852.79 594.22,852.87 595.84,852.97 597.46,853.07 599.08,853.18 600.70,853.30 602.32,853.42 603.94,853.55 605.56,853.68 607.18,853.81 608.80,853.96 610.42,854.10 612.04,854.25 613.66,854.41 615.27,854.57 616.89,854.73 618.51,854.89 620.13,855.06 621.75,855.23 623.37,855.39 624.99,855.55 626.61,855.70 628.23,855.85 629.85,856.00 631.47,856.14 633.09,856.28 634.71,856.41 636.33,856.53 637.95,856.65 639.57,856.77 641.19,856.88 642.81,856.99 644.42,857.10 646.04,857.21 647.66,857.32 649.28,857.43 650.90,857.54 652.52,857.65 654.14,857.75 655.76,857.86 657.38,857.96 659.00,858.06 660.62,858.17 662.24,858.27 663.86,858.37 665.48,858.47 667.10,858.57 668.72,858.67 670.34,858.77 671.96,858.87 673.58,858.96 675.19,859.06 676.81,859.16 678.43,859.26 680.05,859.35 681.67,859.45 683.29,859.54 684.91,859.63 686.53,859.73 688.15,859.82 689.77,859.91 691.39,860.01 693.01,860.10 694.63,860.19 696.25,860.28 697.87,860.37 699.49,860.46 701.11,860.55 702.73,860.64 704.34,860.73 705.96,860.81 707.58,860.90 709.20,860.99 710.82,861.07 712.44,861.16 714.06,861.24 715.68,861.33 717.30,861.41 718.92,861.50 720.54,861.58 722.16,861.66 723.78,861.75 725.40,861.83 727.02,861.91 728.64,861.99 730.26,862.07 731.88,862.15 733.49,862.23 735.11,862.31 736.73,862.39 738.35,862.47 739.97,862.55 741.59,862.63 743.21,862.70 744.83,862.78 746.45,862.86 748.07,862.93 749.69,863.01 751.31,863.09 752.93,863.16 754.55,863.23 756.17,863.31 757.79,863.38 759.41,863.46 761.02,863.53 762.64,863.60 764.26,863.67 765.88,863.74 767.50,863.82 769.12,863.89 770.74,863.96 772.36,864.03 773.98,864.10 775.60,864.17 777.22,864.24 778.84,864.31 780.46,864.37 782.08,864.44 783.70,864.51 785.32,864.58 786.94,864.64 788.56,864.71 790.17,864.78 791.79,864.84 793.41,864.91 795.03,864.97 796.65,865.04 798.27,865.10 799.89,865.17 801.51,865.23 803.13,865.29 804.75,865.36 806.37,865.42 807.99,865.48 809.61,865.55 811.23,865.61 812.85,865.67 814.47,865.73 816.09,865.79 817.71,865.85 819.33,865.91 820.94,865.97 822.56,866.03 824.18,866.09 825.80,866.15 827.42,866.21 829.04,866.27 830.66,866.33 832.28,866.39 833.90,866.44 835.52,866.50 837.14,866.56 838.76,866.61 840.38,866.67 842.00,866.73 843.62,866.78 845.24,866.84 846.86,866.90 848.48,866.95 850.09,867.01 851.71,867.06 853.33,867.11 854.95,867.17 856.57,867.22 858.19,867.28 859.81,867.33 861.43,867.38 863.05,867.44 864.67,867.49 866.29,867.54 867.91,867.59 869.53,867.65 871.15,867.70 872.77,867.75 874.39,867.80 876.01,867.85 877.62,867.90 879.24,867.95 880.86,868.00 882.48,868.05 884.10,868.10 885.72,868.15 887.34,868.20 888.96,868.25 890.58,868.30 892.20,868.35 893.82,868.40 895.44,868.45 897.06,868.49 898.68,868.54 900.30,868.59 901.92,868.64 903.54,868.68 905.16,868.73 906.77,868.78 908.39,868.83 910.01,868.87 911.63,868.92 913.25,868.96 914.87,869.01 916.49,869.06 918.11,869.10 919.73,869.15 921.35,869.19 922.97,869.24 924.59,869.28 926.21,869.32 927.83,869.37 929.45,869.41 931.07,869.46 932.69,869.50 934.31,869.54 935.92,869.59 937.54,869.63 939.16,869.67 940.78,869.72 942.40,869.76 944.02,869.80 945.64,869.84 947.26,869.89 948.88,869.93 950.50,869.97 952.12,870.01 953.74,870.05 955.36,870.09 956.98,870.13 958.60,870.17 960.22,870.22 961.84,870.26 963.46,870.30 965.08,870.34 966.69,870.38 968.31,870.42 969.93,870.46 971.55,870.50 973.17,870.53 974.79,870.57 976.41,870.61 978.03,870.65 979.65,870.69 981.27,870.73 982.89,870.77 984.51,870.81 986.13,870.84 987.75,870.88 989.37,870.92 990.99,870.96 992.61,870.99 994.23,871.03 995.84,871.07 997.46,871.11 999.08,871.14 1000.70,871.18 1002.32,871.22 1003.94,871.25 1005.56,871.29 1007.18,871.32 1008.80,871.36 1010.42,871.40 1012.04,871.43 1013.66,871.47 1015.28,871.50 1016.90,871.54 1018.52,871.57 1020.14,871.61 1021.76,871.64 1023.38,871.68 1024.99,871.71 1026.61,871.75 1028.23,871.78 1029.85,871.82 1031.47,871.85 1033.09,871.88 1034.71,871.92 1036.33,871.95 1037.95,871.98 1039.57,872.02 1041.19,872.05 1042.81,872.08 1044.43,872.12 1046.05,872.15 1047.67,872.18 1049.29,872.22 1050.91,872.25 1052.53,872.28 1054.14,872.31 1055.76,872.34 1057.38,872.38 1059.00,872.41 1060.62,872.44 1062.24,872.47 1063.86,872.50 1065.48,872.54 1067.10,872.57 1068.72,872.60 1070.34,872.63 1071.96,872.66 1073.58,872.69 1075.20,872.72 1076.82,872.75 1078.44,872.78 1080.06,872.81 1081.67,872.84 1083.29,872.87 1084.91,872.90 1086.53,872.93 1088.15,872.96 1089.77,872.99 1091.39,873.02 1093.01,873.05 1094.63,873.08 1096.25,873.11 1097.87,873.14 1099.49,873.17 1101.11,873.20 1102.73,873.23 1104.35,873.26 1105.97,873.28 1107.59,873.31 1109.21,873.34 1110.83,873.37 1112.44,873.40 1114.06,873.43 1115.68,873.45 1117.30,873.48 1118.92,873.51 1120.54,873.54 1122.16,873.56 1123.78,873.59 1125.40,873.62 1127.02,873.65 1128.64,873.67 1130.26,873.70 1131.88,873.73 1133.50,873.75 1135.12,873.78 1136.74,873.81 1138.36,873.84 1139.97,873.86 1141.59,873.89 1143.21,873.91 1144.83,873.94 1146.45,873.97 1148.07,873.99 1149.69,874.02 1151.31,874.04 1152.93,874.07 1154.55,874.10 1156.17,874.12 1157.79,874.15 1159.41,874.17 1161.03,874.20 1162.65,874.22 1164.27,874.25 1165.89,874.27 1167.51,874.30 1169.12,874.32 1170.74,874.35 1172.36,874.37 1173.98,874.40 1175.60,874.42 1177.22,874.45 1178.84,874.47 1180.46,874.50 1182.08,874.52 1183.70,874.54 1185.32,874.57 1186.94,874.59 1188.56,874.62 1190.18,874.64 1191.80,874.66 1193.42,874.69 1195.04,874.71 1196.66,874.73 1198.28,874.76 1199.89,874.78 1201.51,874.80 1203.13,874.83 1204.75,874.85 1206.37,874.87 1207.99,874.90 1209.61,874.92 1211.23,874.94 1212.85,874.96 1214.47,874.99 1216.09,875.01 1217.71,875.03 1219.33,875.05 1220.95,875.08 1222.57,875.10 1224.19,875.12 1225.81,875.14 1227.42,875.16 1229.04,875.19 1230.66,875.21 1232.28,875.23 1233.90,875.25 1235.52,875.27 1237.14,875.29 1238.76,875.32 1240.38,875.34 1242.00,875.36" />
<polyline fill="none" stroke="#9467bd" stroke-width="1.6" points="76.00,882.82 77.62,882.82 79.24,882.82 80.86,882.82 82.48,882.82 84.10,882.82 85.72,882.82 87.34,882.82 88.96,882.82 90.58,882.82 92.19,882.82 93.81,882.82 95.43,882.82 97.05,882.82 98.67,882.82 100.29,882.82 101.91,882.82 103.53,882.82 105.15,882.82 106.77,882.82 108.39,882.82 110.01,882.82 111.63,882.82 113.25,882.82 114.87,882.82 116.49,882.82 118.11,882.82 119.72,882.82 121.34,882.82 122.96,882.82 124.58,882.82 126.20,882.82 127.82,882.82 129.44,882.82 131.06,882.82 132.68,882.82 134.30,882.82 135.92,882.83 137.54,882.83 139.16,882.83 140.78,882.83 142.40,882.83 144.02,882.83 145.64,882.83 147.26,882.83 148.88,882.83 150.49,882.83 152.11,882.83 153.73,882.83 155.35,882.83 156.97,882.83 158.59,882.83 160.21,882.83 161.83,882.83 163.45,882.83 165.07,882.83 166.69,882.83 168.31,882.83 169.93,882.83 171.55,882.83 173.17,882.83 174.79,882.83 176.41,882.83 178.03,882.83 179.64,882.83 181.26,882.83 182.88,882.83 184.50,882.83 186.12,882.83 187.74,882.83 189.36,882.83 190.98,882.83 192.60,882.83 194.22,882.83 195.84,882.83 197.46,882.83 199.08,882.83 200.70,882.83 202.32,882.83 203.94,882.83 205.56,882.83 207.18,882.83 208.79,882.83 210.41,882.83 212.03,882.83 213.65,882.83 215.27,882.83 216.89,882.83 218.51,882.83 220.13,882.83 221.75,882.83 223.37,882.81 224.99,882.77 226.61,882.69 228.23,882.63 229.85,882.57 231.47,882.50 233.09,882.41 234.71,882.28 236.32,882.12 237.94,881.90 239.56,881.58 241.18,881.08 242.80,880.27 244.42,879.02 246.04,877.26 247.66,875.03 249.28,872.47 250.90,869.70 252.52,866.82 254.14,863.90 255.76,860.92 257.38,857.76 259.00,854.37 260.62,850.67 262.24,846.61 263.86,842.12 265.48,837.17 267.09,831.73 268.71,825.78 270.33,819.38 271.95,812.57 273.57,805.43 275.19,798.07 276.81,790.60 278.43,783.14 280.05,775.77 281.67,768.59 283.29,761.66 284.91,755.05 286.53,748.77 288.15,742.88 289.77,737.37 291.39,732.27 293.01,727.56 294.62,723.25 296.24,719.33 297.86,715.78 299.48,712.60 301.10,709.76 302.72,707.25 304.34,705.05 305.96,703.16 307.58,701.54 309.20,700.19 310.82,699.08 312.44,698.21 314.06,697.55 315.68,697.10 317.30,696.83 318.92,696.74 320.54,696.82 322.16,697.04 323.77,697.41 325.39,697.91 327.01,698.53 328.63,699.26 330.25,700.09 331.87,701.01 333.49,702.03 335.11,703.12 336.73,704.28 338.35,705.52 339.97,706.81 341.59,708.15 343.21,709.55 344.83,710.99 346.45,712.47 348.07,713.99 349.69,715.54 351.31,717.12 352.93,718.72 354.54,720.35 356.16,721.99 357.78,723.65 359.40,725.32 361.02,727.00 362.64,728.69 364.26,730.39 365.88,732.09 367.50,733.79 369.12,735.49 370.74,737.19 372.36,738.89 373.98,740.58 375.60,742.27 377.22,743.95 378.84,745.63 380.46,747.29 382.07,748.95 383.69,750.60 385.31,752.23 386.93,753.85 388.55,755.46 390.17,757.06 391.79,758.64 393.41,760.21 395.03,761.76 396.65,763.30 398.27,764.82 399.89,766.32 401.51,767.81 403.13,769.29 404.75,770.74 406.37,772.18 407.99,773.61 409.61,775.01 411.23,776.40 412.84,777.78 414.46,779.13 416.08,780.47 417.70,781.79 419.32,783.09 420.94,784.38 422.56,785.65 424.18,786.90 425.80,788.14 427.42,789.36 429.04,790.56 430.66,791.75 432.28,792.92 433.90,794.08 435.52,795.22 437.14,796.34 438.76,797.45 440.38,798.55 441.99,799.62 443.61,800.69 445.23,801.74 446.85,802.78 448.47,803.80 450.09,804.81 451.71,805.81 453.33,806.79 454.95,807.76 456.57,808.72 458.19,809.67 459.81,810.60 461.43,811.53 463.05,812.44 464.67,813.35 466.29,814.24 467.91,815.13 469.52,816.00 471.14,816.87 472.76,817.73 474.38,818.58 476.00,819.43 477.62,820.27 479.24,821.10 480.86,821.93 482.48,822.76 484.10,823.58 485.72,824.40 487.34,825.21 488.96,826.03 490.58,826.84 492.20,827.66 493.82,828.47 495.44,829.29 497.06,830.12 498.68,830.95 500.29,831.78 501.91,832.63 503.53,833.49 505.15,834.35 506.77,835.23 508.39,836.13 510.01,837.05 511.63,837.99 513.25,838.95 514.87,839.93 516.49,840.94 518.11,841.98 519.73,843.05 521.35,844.15 522.97,845.28 524.59,846.43 526.21,847.61 527.83,848.81 529.44,850.01 531.06,851.20 532.68,852.38 534.30,853.52 535.92,854.61 537.54,855.63 539.16,856.56 540.78,857.40 542.40,858.14 544.02,858.76 545.64,859.27 547.26,859.67 548.88,859.96 550.50,860.14 552.12,860.23 553.74,860.22 555.36,860.14 556.98,859.98 558.59,859.76 560.21,859.49 561.83,859.17 563.45,858.81 565.07,858.42 566.69,858.01 568.31,857.57 569.93,857.13 571.55,856.68 573.17,856.22 574.79,855.76 576.41,855.31 578.03,854.86 579.65,854.42 581.27,853.98 582.89,853.56 584.51,853.16 586.12,852.77 587.74,852.39 589.36,852.03 590.98,851.69 592.60,851.37 594.22,851.06 595.84,850.77 597.46,850.50 599.08,850.25 600.70,850.01 602.32,849.79 603.94,849.59 605.56,849.41 607.18,849.25 608.80,849.10 610.42,848.96 612.04,848.85 613.66,848.75 615.27,848.66 616.89,848.59 618.51,848.53 620.13,848.48 621.75,848.45 623.37,848.43 624.99,848.43 626.61,848.43 628.23,848.45 629.85,848.48 631.47,848.51 633.09,848.56 634.71,848.62 636.33,848.68 637.95,848.76 639.57,848.84 641.19,848.93 642.81,849.03 644.42,849.14 646.04,849.25 647.66,849.37 649.28,849.50 650.90,849.63 652.52,849.76 654.14,849.90 655.76,850.05 657.38,850.20 659.00,850.36 660.62,850.52 662.24,850.68 663.86,850.85 665.48,851.02 667.10,851.19 668.72,851.37 670.34,851.55 671.96,851.73 673.58,851.92 675.19,852.10 676.81,852.29 678.43,852.48 680.05,852.67 681.67,852.87 683.29,853.06 684.91,853.26 686.53,853.45 688.15,853.65 689.77,853.85 691.39,854.05 693.01,854.25 694.63,854.45 696.25,854.65 697.87,854.85 699.49,855.05 701.11,855.26 702.73,855.46 704.34,855.66 705.96,855.86 707.58,856.06 709.20,856.26 710.82,856.46 712.44,856.66 714.06,856.86 715.68,857.06 717.30,857.26 718.92,857.46 720.54,857.66 722.16,857.85 723.78,858.05 725.40,858.24 727.02,858.44 728.64,858.63 730.26,858.82 731.88,859.01 733.49,859.20 735.11,859.39 736.73,859.58 738.35,859.77 739.97,859.94 741.59,860.12 743.21,860.28 744.83,860.44 746.45,860.60 748.07,860.74 749.69,860.89 751.31,861.02 752.93,861.16 754.55,861.29 756.17,861.41 757.79,861.53 759.41,861.65 761.02,861.76 762.64,861.87 764.26,861.97 765.88,862.07 767.50,862.17 769.12,862.26 770.74,862.35 772.36,862.44 773.98,862.53 775.60,862.62 777.22,862.71 778.84,862.79 780.46,862.87 782.08,862.96 783.70,863.04 785.32,863.12 786.94,863.20 788.56,863.28 790.17,863.35 791.79,863.43 793.41,863.50 795.03,863.58 796.65,863.65 798.27,863.73 799.89,863.80 801.51,863.87 803.13,863.94 804.75,864.01 806.37,864.08 807.99,864.15 809.61,864.21 811.23,864.28 812.85,864.35 814.47,864.41 816.09,864.48 817.71,864.54 819.33,864.61 820.94,864.67 822.56,864.74 824.18,864.80 825.80,864.86 827.42,864.92 829.04,864.98 830.66,865.05 832.28,865.11 833.90,865.17 835.52,865.23 837.14,865.29 838.76,865.34 840.38,865.40 842.00,865.46 843.62,865.52 845.24,865.58 846.86,865.63 848.48,865.69 850.09,865.75 851.71,865.80 853.33,865.86 854.95,865.91 856.57,865.97 858.19,866.02 859.81,866.08 861.43,866.13 863.05,866.19 864.67,866.24 866.29,866.29 867.91,866.35 869.53,866.40 871.15,866.45 872.77,866.50 874.39,866.56 876.01,866.61 877.62,866.66 879.24,866.71 880.86,866.76 882.48,866.81 884.10,866.86 885.72,866.91 887.34,866.96 888.96,867.01 890.58,867.06 892.20,867.11 893.82,867.16 895.44,867.21 897.06,867.26 898.68,867.31 900.30,867.36 901.92,867.40 903.54,867.45 905.16,867.50 906.77,867.55 908.39,867.59 910.01,867.64 911.63,867.69 913.25,867.73 914.87,867.78 916.49,867.83 918.11,867.87 919.73,867.92 921.35,867.96 922.97,868.01 924.59,868.06 926.21,868.10 927.83,868.15 929.45,868.19 931.07,868.24 932.69,868.28 934.31,868.32 935.92,868.37 937.54,868.41 939.16,868.46 940.78,868.50 942.40,868.54 944.02,868.59 945.64,868.63 947.26,868.67 948.88,868.71 950.50,868.76 952.12,868.80 953.74,868.84 955.36,868.88 956.98,868.93 958.60,868.97 960.22,869.01 961.84,869.05 963.46,869.09 965.08,869.13 966.69,869.17 968.31,869.22 969.93,869.26 971.55,869.30 973.17,869.34 974.79,869.38 976.41,869.42 978.03,869.46 979.65,869.50 981.27,869.54 982.89,869.58 984.51,869.62 986.13,869.65 987.75,869.69 989.37,869.73 990.99,869.77 992.61,869.81 994.23,869.85 995.84,869.89 997.46,869.93 999.08,869.96 1000.70,870.00 1002.32,870.04 1003.94,870.08 1005.56,870.11 1007.18,870.15 1008.80,870.19 1010.42,870.23 1012.04,870.26 1013.66,870.30 1015.28,870.34 1016.90,870.37 1018.52,870.41 1020.14,870.45 1021.76,870.48 1023.38,870.52 1024.99,870.56 1026.61,870.59 1028.23,870.63 1029.85,870.66 1031.47,870.70 1033.09,870.73 1034.71,870.77 1036.33,870.80 1037.95,870.84 1039.57,870.87 1041.19,870.91 1042.81,870.94 1044.43,870.98 1046.05,871.01 1047.67,871.05 1049.29,871.08 1050.91,871.11 1052.53,871.15 1054.14,871.18 1055.76,871.22 1057.38,871.25 1059.00,871.28 1060.62,871.32 1062.24,871.35 1063.86,871.38 1065.48,871.42 1067.10,871.45 1068.72,871.48 1070.34,871.51 1071.96,871.55 1073.58,871.58 1075.20,871.61 1076.82,871.64 1078.44,871.67 1080.06,871.71 1081.67,871.74 1083.29,871.77 1084.91,871.80 1086.53,871.83 1088.15,871.87 1089.77,871.90 1091.39,871.93 1093.01,871.96 1094.63,871.99 1096.25,872.02 1097.87,872.05 1099.49,872.08 1101.11,872.11 1102.73,872.14 1104.35,872.17 1105.97,872.20 1107.59,872.23 1109.21,872.26 1110.83,872.29 1112.44,872.32 1114.06,872.35 1115.68,872.38 1117.30,872.41 1118.92,872.44 1120.54,872.47 1122.16,872.50 1123.78,872.53 1125.40,872.56 1127.02,872.59 1128.64,872.62 1130.26,872.65 1131.88,872.68 1133.50,872.70 1135.12,872.73 1136.74,872.76 1138.36,872.79 1139.97,872.82 1141.59,872.85 1143.21,872.87 1144.83,872.90 1146.45,872.93 1148.07,872.96 1149.69,872.99 1151.31,873.01 1152.93,873.04 1154.55,873.07 1156.17,873.10 1157.79,873.12 1159.41,873.15 1161.03,873.18 1162.65,873.20 1164.27,873.23 1165.89,873.26 1167.51,873.28 1169.12,873.31 1170.74,873.34 1172.36,873.36 1173.98,873.39 1175.60,873.42 1177.22,873.44 1178.84,873.47 1180.46,873.50 1182.08,873.52 1183.70,873.55 1185.32,873.57 1186.94,873.60 1188.56,873.62 1190.18,873.65 1191.80,873.68 1193.42,873.70 1195.04,873.73 1196.66,873.75 1198.28,873.78 1199.89,873.80 1201.51,873.83 1203.13,873.85 1204.75,873.88 1206.37,873.90 1207.99,873.93 1209.61,873.95 1211.23,873.98 1212.85,874.00 1214.47,874.02 1216.09,874.05 1217.71,874.07 1219.33,874.10 1220.95,874.12 1222.57,874.14 1224.19,874.17 1225.81,874.19 1227.42,874.22 1229.04,874.24 1230.66,874.26 1232.28,874.29 1233.90,874.31 1235.52,874.33 1237.14,874.36 1238.76,874.38 1240.38,874.40 1242.00,874.43" />
<text x="1180" y="920" font-size="10" font-family="Arial">time, min</text>
<text x="28" y="920" font-size="10" font-family="Arial">delta mmol/L</text>
<line x1="1080" y1="666" x2="1098" y2="666" stroke="#2ca02c" stroke-width="2"/>
<text x="1104" y="670" font-size="11" font-family="Arial">delta tms=0</text>
<line x1="1080" y1="680" x2="1098" y2="680" stroke="#9467bd" stroke-width="2"/>
<text x="1104" y="684" font-size="11" font-family="Arial">delta tms=30</text>
</svg>