<svg xmlns="http://www.w3.org/2000/svg" width="900" height="420">
<rect width="100%" height="100%" fill="#fbfdff"/>
<text x="20" y="30" font-size="20" font-family="Arial">Performance comparison (lower is better)</text>
<rect x="70" y="70" width="780" height="300" fill="white" stroke="#d0d7de"/>
<line x1="70" y1="70.00" x2="850" y2="70.00" stroke="#f0f0f0"/>
<text x="20" y="74.00" font-size="10" font-family="Arial">2.86 ms</text>
<line x1="70" y1="130.00" x2="850" y2="130.00" stroke="#f0f0f0"/>
<text x="20" y="134.00" font-size="10" font-family="Arial">2.28 ms</text>
<line x1="70" y1="190.00" x2="850" y2="190.00" stroke="#f0f0f0"/>
<text x="20" y="194.00" font-size="10" font-family="Arial">1.71 ms</text>
<line x1="70" y1="250.00" x2="850" y2="250.00" stroke="#f0f0f0"/>
<text x="20" y="254.00" font-size="10" font-family="Arial">1.14 ms</text>
<line x1="70" y1="310.00" x2="850" y2="310.00" stroke="#f0f0f0"/>
<text x="20" y="314.00" font-size="10" font-family="Arial">0.57 ms</text>
<line x1="70" y1="370.00" x2="850" y2="370.00" stroke="#f0f0f0"/>
<text x="20" y="374.00" font-size="10" font-family="Arial">0.00 ms</text>
<rect x="110" y="240.34" width="120" height="129.66" fill="#1f77b4"/>
<text x="115" y="386" font-size="11" font-family="Arial">SIBR old</text>
<text x="120" y="234.34" font-size="11" font-family="Arial">1.23 ms</text>
<rect x="290" y="109.13" width="120" height="260.87" fill="#d62728"/>
<text x="295" y="386" font-size="11" font-family="Arial">SIBR new</text>
<text x="300" y="103.13" font-size="11" font-family="Arial">2.48 ms</text>
<rect x="470" y="249.24" width="120" height="120.76" fill="#1f77b4"/>
<text x="475" y="386" font-size="11" font-family="Arial">DM old</text>
<text x="480" y="243.24" font-size="11" font-family="Arial">1.15 ms</text>
<rect x="650" y="199.01" width="120" height="170.99" fill="#d62728"/>
<text x="655" y="386" font-size="11" font-family="Arial">DM new</text>
<text x="660" y="193.01" font-size="11" font-family="Arial">1.63 ms</text>
</svg>